<?xml version="1.0" encoding="iso-8859-1"?>
<!-- Generator: Adobe Illustrator 19.0.0, SVG Export Plug-In . SVG Version: 6.00 Build 0)  -->
<svg version="1.1" id="Capa_1" xmlns="http://www.w3.org/2000/svg" xmlns:xlink="http://www.w3.org/1999/xlink" x="0px" y="0px"
	 viewBox="0 0 512 512" style="enable-background:new 0 0 512 512;" xml:space="preserve">
<path style="fill:#E76E54;" d="M282.815,475.032C164.291,492.284,54.229,410.19,36.977,291.675
	c-1.51-10.379-2.274-20.853-2.265-31.336c0-2.864,0.087-5.814,0.174-8.678C39.65,131.94,140.574,38.747,260.296,43.511
	c69.476,2.768,133.424,38.669,171.954,96.551c23.656,35.658,36.3,77.486,36.361,120.277
	c0.121,107.798-79.022,199.289-185.708,214.693"/>
<path d="M407.864,312.407c-19.144,0-34.712-15.568-34.712-34.712c0-19.144,15.568-34.712,34.712-34.712s34.712,15.568,34.712,34.712
	C442.576,296.839,427.008,312.407,407.864,312.407z M407.864,260.339c-9.572,0-17.356,7.784-17.356,17.356
	s7.784,17.356,17.356,17.356s17.356-7.784,17.356-17.356S417.436,260.339,407.864,260.339z"/>
<path style="fill:#FFCB5A;" d="M300.518,258.169c16.176-0.113,29.384,12.904,29.496,29.08c0.113,16.176-12.904,29.384-29.08,29.496
	c-3.705,0.026-7.385-0.651-10.839-1.996c-2.508,10.466-13.034,16.913-23.5,14.405c-10.466-2.508-16.913-13.034-14.405-23.5
	c2.109-8.773,9.962-14.961,18.987-14.943h0.347c-0.2-1.059-0.321-2.135-0.347-3.211c-0.017-16.184,13.078-29.314,29.262-29.332
	C300.475,258.169,300.492,258.169,300.518,258.169z"/>
<g>
	<circle style="fill:#E76E54;" cx="373.153" cy="381.831" r="43.39"/>
	<path style="fill:#E76E54;" d="M462.102,207.751l-2.169,0.521c-69.424,26.034-138.847,8.678-199.593,0
		c-60.746-8.678-121.492,17.356-147.525,8.678c-26.034-8.678-26.034-52.068,34.712-62.568c81.139-13.972,130.169,0,199.593,0
		c57.795,0,79.49-10.761,85.131-14.319C446.073,160.707,456.175,183.617,462.102,207.751z"/>
</g>
<path style="fill:#D95354;" d="M468.61,260.339c0.052,79.646-43.555,152.906-113.595,190.828
	c-38.209-7.229-72.14-28.967-94.677-60.659c-34.712-52.068-86.78-112.814-138.847-130.169c-49.898-16.662-83.916-9.372-86.606-8.678
	c2.161-56.468,26.372-109.837,67.428-148.654c33.844-0.607,40.873,11.889,83.742,6.856c49.204-5.814,47.208-22.997,96.412-28.811
	c48.857-5.814,51.2,11.195,99.363,5.727c19.699,14.787,36.743,32.803,50.419,53.283c-5.641,3.558-27.336,14.319-85.131,14.319
	c-69.424,0-118.454-13.972-199.593,0c-60.746,10.5-60.746,53.89-34.712,62.568c26.034,8.678,86.78-17.356,147.525-8.678
	c60.746,8.678,130.169,26.034,199.593,0l2.169-0.521C466.441,224.942,468.619,242.61,468.61,260.339z M373.153,425.22
	c23.96,0,43.39-19.43,43.39-43.39s-19.43-43.39-43.39-43.39c-23.96,0-43.39,19.43-43.39,43.39S349.193,425.22,373.153,425.22z
	 M329.763,287.501c0-16.176-13.112-29.288-29.288-29.288s-29.288,13.112-29.288,29.288c0.026,1.076,0.148,2.152,0.347,3.211h-0.347
	c-10.787-0.043-19.56,8.661-19.604,19.447s8.661,19.56,19.447,19.604c9.077,0.035,16.974-6.187,19.074-15.013
	c14.952,5.849,31.813-1.536,37.662-16.488C329.103,294.834,329.789,291.18,329.763,287.501z"/>
<path style="fill:#E76E54;" d="M260.339,390.508c22.537,31.692,56.468,53.43,94.677,60.659
	c-22.45,12.123-46.861,20.202-72.114,23.864h-0.087c-74.37-12.843-68.816-69.511-118.454-102.574
	c-33.41-20.827-72.765-30.034-111.946-26.207c-11.715-27.127-17.738-56.363-17.703-85.912c0-2.864,0.087-5.814,0.174-8.678
	c2.69-0.694,36.708-7.984,86.606,8.678C173.559,277.695,225.627,338.441,260.339,390.508z"/>
<g>
	<path style="fill:#F38A68;" d="M282.815,475.032c-97.08,14.102-191.549-38.695-230.4-128.781
		c39.181-3.827,78.536,5.38,111.946,26.207C213.999,405.521,208.445,462.188,282.815,475.032z"/>
	<path style="fill:#F38A68;" d="M381.831,86.78c-48.163,5.467-50.506-11.542-99.363-5.727
		c-49.204,5.814-47.208,22.997-96.412,28.811c-42.869,5.033-49.898-7.463-83.742-6.856C179.061,30.156,297.168,23.3,381.831,86.78z"
		/>
</g>
<g>
	<path style="fill:#8A4325;" d="M373.153,433.898c-28.759,0-52.068-23.309-52.068-52.068c0-28.759,23.309-52.068,52.068-52.068
		c28.759,0,52.068,23.309,52.068,52.068C425.194,410.572,401.894,433.872,373.153,433.898z M373.153,347.119
		c-19.17,0-34.712,15.542-34.712,34.712s15.542,34.712,34.712,34.712c19.17,0,34.712-15.542,34.712-34.712
		S392.322,347.119,373.153,347.119z"/>
	<path style="fill:#8A4325;" d="M271.186,338.441c-15.577,0.009-28.212-12.618-28.212-28.195
		c-0.009-12.331,8.001-23.231,19.76-26.919c2.265-20.844,21.001-35.909,41.845-33.644s35.909,21.001,33.644,41.845
		c-2.265,20.844-21.001,35.909-41.845,33.644c-0.399-0.043-0.798-0.095-1.198-0.147C290.078,333.39,280.984,338.475,271.186,338.441
		z M300.518,266.847c-11.403,0.009-20.645,9.251-20.654,20.654c0.026,0.581,0.104,1.163,0.226,1.736
		c0.816,4.721-2.352,9.216-7.073,10.023c-0.486,0.087-0.981,0.13-1.484,0.13c-5.988-0.095-10.926,4.686-11.021,10.674
		s4.686,10.926,10.674,11.021c4.981-0.026,9.303-3.454,10.466-8.305c1.085-4.669,5.753-7.567,10.422-6.482
		c0.382,0.087,0.746,0.2,1.111,0.338c10.422,4.183,22.259-0.876,26.442-11.299c0.998-2.491,1.493-5.155,1.458-7.836
		C321.102,276.124,311.895,266.882,300.518,266.847z"/>
</g>
<path style="fill:#003170;" d="M485.966,78.102H468.61c0-14.379-11.654-26.034-26.034-26.034V34.712
	c14.379,0,26.034-11.655,26.034-26.034h17.356c0,14.379,11.655,26.034,26.034,26.034v17.356
	C497.621,52.068,485.966,63.722,485.966,78.102z M468.61,43.39c3.28,2.473,6.205,5.398,8.678,8.678
	c2.473-3.28,5.398-6.205,8.678-8.678c-3.28-2.473-6.205-5.398-8.678-8.678C474.815,37.992,471.89,40.917,468.61,43.39z"/>
<g>
	<path style="fill:#FFCB5A;" d="M34.712,468.61h17.356v17.356H34.712V468.61z"/>
	<path style="fill:#FFCB5A;" d="M0,468.61h17.356v17.356H0V468.61z"/>
	<path style="fill:#FFCB5A;" d="M17.356,451.254h17.356v17.356H17.356V451.254z"/>
	<path style="fill:#FFCB5A;" d="M17.356,485.966h17.356v17.356H17.356V485.966z"/>
</g>
<path style="fill:#D95354;" d="M425.22,468.61h17.356v17.356H425.22V468.61z"/>
<path d="M251.661,485.966c-124.407,0-225.627-101.211-225.627-225.627c0-124.407,101.22-225.627,225.627-225.627
	c124.416,0,225.627,101.22,225.627,225.627C477.288,384.755,376.077,485.966,251.661,485.966z M251.661,52.068
	c-114.836,0-208.271,93.436-208.271,208.271S136.826,468.61,251.661,468.61s208.271-93.436,208.271-208.271
	S366.497,52.068,251.661,52.068z"/>
<path d="M373.153,433.898c-28.715,0-52.068-23.352-52.068-52.068s23.352-52.068,52.068-52.068c28.715,0,52.068,23.352,52.068,52.068
	S401.868,433.898,373.153,433.898z M373.153,347.119c-19.144,0-34.712,15.568-34.712,34.712s15.568,34.712,34.712,34.712
	c19.144,0,34.712-15.568,34.712-34.712S392.296,347.119,373.153,347.119z"/>
<path d="M407.864,312.407c-19.144,0-34.712-15.568-34.712-34.712c0-19.144,15.568-34.712,34.712-34.712s34.712,15.568,34.712,34.712
	C442.576,296.839,427.008,312.407,407.864,312.407z M407.864,260.339c-9.572,0-17.356,7.784-17.356,17.356
	s7.784,17.356,17.356,17.356s17.356-7.784,17.356-17.356S417.436,260.339,407.864,260.339z"/>
<path d="M271.152,338.441c-0.026,0-0.061,0-0.087,0c-7.532-0.017-14.605-2.968-19.925-8.305c-5.311-5.346-8.227-12.444-8.209-19.977
	c0.026-12.531,8.279-23.17,19.63-26.798c0.295-4.513,1.354-8.947,3.15-13.147c4.209-9.823,11.993-17.417,21.912-21.374
	c9.919-3.975,20.792-3.836,30.607,0.382c9.815,4.209,17.408,11.993,21.374,21.903c3.966,9.928,3.827,20.792-0.382,30.607
	c-7.532,17.547-26.225,26.936-44.232,23.543C289.974,333.321,281.088,338.441,271.152,338.441z M271.49,299.39
	c-6.326,0-11.186,4.851-11.203,10.813c-0.009,2.907,1.111,5.632,3.159,7.689c2.048,2.057,4.764,3.185,7.663,3.193
	c0.017,0,0.026,0,0.035,0c5.042,0,9.372-3.428,10.544-8.331c0.59-2.482,2.256-4.582,4.539-5.736
	c2.282-1.146,4.964-1.224,7.316-0.217c11.49,4.886,24.819-0.408,29.748-11.889c2.378-5.554,2.456-11.715,0.208-17.321
	c-2.248-5.615-6.543-10.023-12.097-12.409c-5.563-2.378-11.715-2.465-17.339-0.217c-5.606,2.248-10.014,6.543-12.401,12.097
	c-1.666,3.896-2.213,8.166-1.579,12.357c0.382,2.499-0.347,5.042-1.987,6.96C276.437,298.288,274.059,299.485,271.49,299.39z"/>
<path d="M167.068,119.756c-14.024,0-23.647-2.152-33.037-4.252c-9.346-2.091-18.146-4.079-31.701-3.801l-0.33-17.356
	c15.612-0.278,25.886,1.996,35.814,4.226c12.418,2.777,24.142,5.406,47.26,2.681c23.135-2.716,33.94-7.992,45.377-13.581
	c12.245-5.979,24.897-12.158,50.94-15.23c26.069-3.063,39.806,0.009,53.1,2.985c12.436,2.76,24.168,5.398,47.321,2.673l2.031,17.234
	c-26.077,3.063-39.823,0-53.135-2.985c-12.436-2.777-24.194-5.406-47.269-2.681c-23.118,2.716-33.922,7.992-45.36,13.581
	c-12.245,5.979-24.906,12.167-50.974,15.23C179.478,119.383,172.891,119.747,167.068,119.756z"/>
<path d="M281.392,483.597c-48.796-8.4-66.204-34.842-83.031-60.407c-10.648-16.167-20.697-31.44-38.764-43.485
	c-31.64-19.699-69.771-28.49-107.103-24.619l-1.788-17.269c41.194-4.217,83.187,5.424,118.298,27.301
	c21.226,14.145,32.733,31.622,43.858,48.527c16.15,24.533,30.104,45.724,71.489,52.849L281.392,483.597z"/>
<path d="M354.226,459.785c-40.943-7.532-76.8-30.347-100.959-64.243c-21.278-31.909-76.652-107.676-134.526-126.976
	c-48.692-16.228-81.642-8.574-81.955-8.478l-4.183-16.844c1.519-0.382,37.784-9.086,91.631,8.86
	c60.702,20.237,115.851,92.386,143.325,133.589c21.374,29.982,53.326,50.315,89.808,57.023L354.226,459.785z"/>
<path d="M378.715,230.678c-32.369,0-63.748-5.025-93.028-9.711c-9.016-1.441-17.894-2.864-26.581-4.105
	c-31.822-4.539-64.755,1.033-91.205,5.502c-24.567,4.157-43.963,7.437-57.839,2.82c-14.51-4.842-23.5-18.172-22.363-33.185
	c1.336-17.677,17.365-39.077,58.342-46.141c54.767-9.442,94.347-6.448,136.27-3.272c20.471,1.545,41.654,3.15,64.798,3.15
	c63.453,0,81.018-13.381,81.182-13.512l11.394,13.095c-2.031,1.814-21.877,17.772-92.577,17.772
	c-23.795,0-45.308-1.631-66.109-3.202c-40.812-3.089-79.36-6.005-132.009,3.072c-31.18,5.38-43.182,19.708-43.989,30.356
	c-0.538,7.047,3.61,13.095,10.544,15.403c9.763,3.246,28.151,0.139,49.447-3.463c27.639-4.686,62.039-10.5,96.56-5.571
	c8.782,1.258,17.746,2.69,26.867,4.148c54.654,8.756,111.191,17.79,168.448-3.688l6.101,16.254
	C434.636,227.024,406.311,230.678,378.715,230.678z"/>
<g>
</g>
<g>
</g>
<g>
</g>
<g>
</g>
<g>
</g>
<g>
</g>
<g>
</g>
<g>
</g>
<g>
</g>
<g>
</g>
<g>
</g>
<g>
</g>
<g>
</g>
<g>
</g>
<g>
</g>
</svg>
