<svg height="512pt" viewBox="0 -93 512.00016 512" width="512pt" xmlns="http://www.w3.org/2000/svg"><path d="m403.753906 168.460938c-2.863281 81.996093-70.230468 147.578124-152.917968 147.578124-47.484376 0-89.914063-21.625-117.976563-55.570312 41.609375-7.425781 90.71875-20.28125 142.296875-38.03125 48.425781-16.664062 92.472656-35.386719 128.597656-53.976562zm0 0" fill="#f9d89c"/><path d="m401.308594 135.097656c-30.222656 17.617188-80.414063 39.566406-138.546875 59.570313-59.289063 20.402343-113.292969 34.132812-147.898438 38.582031-4.992187-9.628906-8.980469-19.851562-11.835937-30.546875-2.777344-10.34375-4.492188-21.125-5.023438-32.21875-.117187-2.472656-.179687-4.960937-.179687-7.464844 0-84.511719 68.507812-153.019531 153.011719-153.019531 51.21875 0 96.566406 25.164062 124.347656 63.816406 6.484375 9.019532 12.003906 18.78125 16.425781 29.132813 4.359375 10.191406 7.636719 20.957031 9.699219 32.148437zm0 0" fill="#f9d89c"/><path d="m275.15625 222.4375c-135.441406 46.609375-253.804688 59.488281-264.386719 28.753906-6.4375-18.691406 28.460938-49.1875 87.234375-80.707031.53125 11.09375 2.246094 21.878906 5.023438 32.21875-.542969.332031-1.082032.652344-1.613282.972656-5.601562 3.449219-11.175781 7.035157-16.257812 11.234375-2.113281 1.746094-4.179688 3.578125-5.972656 5.644532-1.53125 1.753906-3.078125 3.785156-3.546875 6.113281-.671875 3.34375 1.882812 5.378906 4.710937 6.421875 4.097656 1.511718 8.695313 1.695312 13.015625 1.722656 5.84375.050781 11.6875-.4375 17.488281-1.082031 1.300782-.136719 2.644532-.300781 4.007813-.480469 3.960937-.511719 8.179687-1.140625 12.628906-1.894531 14.890625-2.363281 29.652344-5.800781 44.273438-9.4375 14.03125-3.488281 27.960937-7.335938 41.8125-11.457031 14.472656-4.296876 28.863281-8.898438 43.164062-13.738282 14.367188-4.863281 28.652344-9.992187 42.839844-15.375 14.09375-5.339844 28.089844-10.953125 41.933594-16.925781 1.78125-.78125 3.578125-1.554687 5.371093-2.335937 21.707032-9.519532 40.257813-18.730469 54.425782-26.988282 1.84375-1.070312 3.609375-2.125 5.292968-3.164062 5.351563-3.296875 10.621094-6.777344 15.484376-10.765625 2.375-1.941407 4.679687-4.039063 6.625-6.421875 1.449218-1.792969 2.984374-4.03125 2.984374-6.433594 0-2.316406-1.734374-3.890625-3.667968-4.8125-4.167969-1.992188-9.257813-2.152344-13.777344-2.203125-5.972656-.070313-11.976562.371094-17.898438 1.070313-1.535156.171874-3.117187.371093-4.742187.582031-4.417969-10.351563-9.941406-20.113281-16.425781-29.132813 69.75-12.867187 119.367187-10.84375 126.050781 8.558594 10.585937 30.734375-90.644531 93.441406-226.078125 140.0625zm0 0" fill="#95e8fa"/><g fill="#f7cf77"><path d="m214.789062 77.625c-25.394531 17.949219-70.644531 46.910156-114.898437 60.230469 2.535156-15.332031 7.34375-29.894531 14.078125-43.324219 23.691406-3.105469 57.96875-9.621094 97.511719-23.300781 3.988281-1.382813 6.753906 3.957031 3.308593 6.394531zm0 0"/><path d="m386.539062 92.238281c-55.902343 31.957031-137.117187 61.890625-193.777343 75.152344-5.164063 1.210937-7.71875-5.953125-2.976563-8.328125 87.789063-44.027344 139.28125-92.960938 158.8125-113.765625 10.019532 8.328125 18.96875 17.917969 26.585938 28.519531 4.199218 5.84375 7.996094 11.996094 11.355468 18.421875zm0 0"/><path d="m391.597656 223.089844c-23.328125 54.65625-77.574218 92.949218-140.761718 92.949218-30.785157 0-59.449219-9.089843-83.449219-24.734374l.007812-.007813s134.480469 9.027344 224.203125-68.207031zm0 0"/></g><path d="m510.691406 79.117188c-10.449218-30.328126-75.757812-25.957032-131.21875-16.230469-3.71875-4.773438-7.703125-9.34375-11.933594-13.667969-3.980468-4.078125-8.160156-7.964844-12.550781-11.613281-.265625-.222657-.542969-.425781-.824219-.613281-28.855468-23.601563-65.34375-36.992188-103.328124-36.992188-63.355469 0-118.378907 36.332031-145.34375 89.253906-.160157.261719-.324219.519532-.460938.792969-3.945312 7.871094-7.210938 16.039063-9.820312 24.417969-2.234376 7.152344-4.175782 14.574218-5.210938 22.003906-1.421875 8.644531-2.175781 17.511719-2.175781 26.550781 0 .53125.015625 1.070313.019531 1.601563-27.59375 15.152344-49.867188 30.179687-64.644531 43.632812-19.089844 17.382813-26.453125 32.921875-21.886719 46.191406.617188 1.792969 1.484375 3.554688 2.574219 5.230469 3.003906 4.632813 9.195312 5.953125 13.832031 2.945313 4.632812-3.003906 5.949219-9.199219 2.945312-13.832032-.207031-.3125-.351562-.601562-.441406-.855468-1.199218-3.484375 2.390625-12.09375 16.445313-24.890625 12.226562-11.136719 30.335937-23.609375 52.855469-36.445313.554687 3.832032 1.246093 7.648438 2.074218 11.429688-4.304687 2.753906-8.683594 5.765625-12.800781 9.171875-2.058594 1.695312-4.730469 4-7.136719 6.773437-2.214844 2.527344-4.875 6.03125-5.828125 10.726563-1.550781 7.75 2.785157 14.726562 11.050781 17.773437 5.675782 2.09375 11.449219 2.304688 16.398438 2.339844 6.855469.054688 13.582031-.578125 18.640625-1.136719 5.734375-.617187 11.449219-1.480469 17.136719-2.441406 15.761718-2.503906 31-6.101563 45.117187-9.613281 13.644531-3.390625 27.464844-7.175782 42.246094-11.574219 13.792969-4.097656 27.503906-8.464844 41.136719-13.050781 13.535156-4.546875 26.992187-9.320313 40.363281-14.328125 13.019531-4.875 25.960937-9.96875 38.785156-15.332031 12.554688-5.253907 25.003907-10.761719 37.277344-16.644532 11.4375-5.488281 22.746094-11.285156 33.683594-17.726562 1.402343-.824219 2.796875-1.664063 4.179687-2.519532 4.691406-2.890624 10.816406-6.8125 16.570313-11.539062 3.378906-2.761719 5.933593-5.253906 8.0625-7.867188 2.238281-2.765624 5.214843-7.089843 5.214843-12.730468 0-5.867188-3.5-11.039063-9.351562-13.828125-5.894531-2.820313-12.117188-3.121094-17.976562-3.183594-5.15625-.058594-10.660157.222656-16.683594.859375-1.8125-3.757812-3.777344-7.453125-5.875-11.0625 27.730468-4.433594 51.527344-6.199219 69.453125-5.121094 20.5 1.238282 29.253906 5.976563 30.519531 9.65625.945312 2.738282-1.109375 8.96875-9.695312 18.246094-9.328126 10.074219-24.679688 21.855469-44.398438 34.070312-11.566406 7.167969-24.40625 14.375-38.285156 21.527344-.074219.035156-.148438.058594-.21875.09375-29.914063 15.390625-64.511719 30.445313-101.246094 44.097656-13.253906 4.921876-26.601562 9.605469-40.03125 14.027344-3.765625 1.238282-7.539062 2.460938-11.316406 3.664063-58.035156 18.433593-114.261719 31.039062-157.316406 35.101562-5.496094.519531-9.535157 5.398438-9.015626 10.894531.488282 5.179688 4.847657 9.0625 9.945313 9.0625.3125 0 .632813-.015624.953125-.046874 11.867188-1.117188 24.535156-2.824219 37.839844-5.070313 12.425781 13.984375 26.957031 25.554687 42.933594 34.402344 11.75 6.515625 24.273437 11.46875 37.25 14.945312 13.121093 3.515625 26.738281 5.25 40.3125 5.382813 7.628906.078125 15.273437-.40625 22.832031-1.40625 19.4375-2.550782 38.097656-8.558594 55.222656-17.710938.359375-.1875.714844-.378906 1.070313-.574218.515624-.28125 1.03125-.5625 1.542968-.847657.867188-.480469 1.726563-.96875 2.582032-1.46875.070312-.039062.140624-.078125.210937-.117187 21.3125-12.414063 39.738281-29.632813 53.648437-50.578125.3125-.464844.613282-.9375.917969-1.40625.242188-.367188.480469-.734375.71875-1.105469 14.558594-22.714844 23.25-48.746094 25.1875-76.097656 12.511719-6.570313 24.167969-13.183594 34.792969-19.769532 48.445312-30.007812 69.464844-55.519531 62.472656-75.828124zm-259.855468-59.117188c29.933593 0 58.808593 9.476562 82.726562 26.414062-4.988281 4.964844-11.324219 11-18.976562 17.753907-4.140626 3.652343-4.535157 9.972656-.878907 14.113281 3.652344 4.140625 9.972657 4.535156 14.113281.878906 8.726563-7.699218 15.84375-14.535156 21.285157-20.007812 3.46875 3.273437 6.796875 6.722656 9.945312 10.355468 5.113281 5.914063 9.734375 12.234376 13.816407 18.898438-17.015626 9.246094-36.488282 18.515625-57.996094 27.609375-.113282.046875-11.609375 4.824219-15.402344 6.34375-3.589844 1.4375-14.582031 5.683594-14.644531 5.707031-16.164063 6.144532-32.414063 11.789063-48.03125 16.714844 8.792969-5.214844 17.414062-10.59375 25.808593-16.113281 4.617188-3.03125 5.898438-9.230469 2.867188-13.847657-3.035156-4.613281-9.230469-5.894531-13.847656-2.863281-20.914063 13.742188-43.226563 26.585938-66.316406 38.164063-6.679688 3.347656-9.679688 10.863281-7.140626 17.875 2.128907 5.882812 7.492188 9.53125 13.449219 9.53125 1.125 0 2.273438-.128906 3.425781-.402344 28.519532-6.671875 62.929688-17.457031 96.941407-30.382812.457031-.175782 11.21875-4.332032 14.921875-5.816407 3.910156-1.566406 15.167968-6.242187 15.703125-6.464843 22.015625-9.308594 41.96875-18.808594 59.484375-28.308594.105468.242187.21875.484375.324218.730468 3.1875 7.449219 5.734376 15.199219 7.609376 23.117188-15.273438 8.4375-31.101563 15.867188-47.074219 22.867188-17.746094 7.777343-35.742188 14.96875-53.886719 21.746093-18.589844 6.941407-37.351562 13.410157-56.253906 19.445313-18.648438 5.957031-37.453125 11.457031-56.40625 16.359375-16.164063 4.175781-32.464844 7.992187-48.921875 10.800781-2.273438.390625-4.542969.757812-6.820313 1.109375-3.269531-7.167969-5.945312-14.613281-7.976562-22.214844-.328125-1.222656-.640625-2.449219-.933594-3.683593-1.476562-6.160157-2.542969-12.449219-3.1875-18.792969-.492188-4.855469-.738281-9.738281-.738281-14.617188 0-5.933593.371093-11.785156 1.074219-17.535156 21.671874-7.222656 60.746093-23.707031 111.65625-59.691406h.003906c5.601562-3.957031 7.394531-11.253907 4.265625-17.351563-3.136719-6.109375-10.125-8.90625-16.613281-6.660156-28.644532 9.910156-54.429688 15.933594-74.71875 19.585938 25.867187-37.066407 68.820312-61.367188 117.34375-61.367188zm-130.113282 83.695312c13.714844-1.976562 31.308594-5.160156 51.496094-10.285156-17.527344 10.449219-37.886719 21.195313-58.554688 29.140625 1.917969-6.488281 4.277344-12.785156 7.058594-18.855469zm-31.582031 120.984376c.828125-.757813 1.65625-1.457032 2.386719-2.0625 1.867187-1.542969 3.851562-3.015626 5.878906-4.433594.78125 2.175781 1.617188 4.328125 2.492188 6.464844-2.121094.117187-4.304688.1875-6.460938.164062-1.394531-.007812-2.863281-.03125-4.296875-.132812zm324.996094-113.382813c1.15625.011719 2.546875.027344 3.953125.117187-.695313.640626-1.476563 1.308594-2.347656 2.023438-2.554688 2.097656-5.257813 4.039062-7.855469 5.789062-.71875-2.578124-1.488281-5.136718-2.332031-7.675781 3.027343-.199219 5.875-.285156 8.582031-.253906zm-63.863281 154.515625c-8.136719 7.875-17.0625 14.667969-26.582032 20.320312-12.9375 7.648438-27.054687 13.238282-41.722656 16.496094-14.972656 3.328125-30.492188 4.226563-45.75 2.664063-8.511719-.875-16.945312-2.496094-25.167969-4.871094 10.800781-.835937 23.117188-2.203125 36.429688-4.398437 46.308593-7.640626 82.070312-21.632813 108.96875-36.5625-1.984375 2.171874-4.042969 4.289062-6.175781 6.351562zm33.078124-48.859375c-44.179687 37.210937-99.640624 52.769531-138.625 59.253906-36.421874 6.058594-65.605468 5.554688-74.128906 5.230469-6.371094-4.324219-12.414062-9.175781-18.066406-14.535156 33.796875-6.898438 70.84375-16.851563 109.035156-29.355469 13.417969-4.390625 26.753906-9.023437 40-13.898437 32.460938-11.945313 63.109375-24.882813 90.539063-38.179688-1.707031 10.863281-4.65625 21.414062-8.753907 31.484375zm0 0"/><path d="m281.320312 100.53125c1.578126 3.847656 5.5625 6.382812 9.722657 6.164062 4.117187-.214843 7.761719-3.003906 9.027343-6.929687 1.277344-3.960937-.109374-8.464844-3.433593-10.984375-3.382813-2.566406-8.09375-2.726562-11.636719-.378906-3.917969 2.59375-5.484375 7.796875-3.679688 12.128906zm0 0"/><path d="m58.6875 263.695312c-1.578125-3.785156-5.402344-6.253906-9.5-6.164062-4.25.097656-8.070312 3.035156-9.300781 7.09375-1.1875 3.921875.214843 8.34375 3.484375 10.832031 3.355468 2.554688 8.039062 2.730469 11.570312.425781 3.984375-2.605468 5.542969-7.796874 3.746094-12.1875zm0 0"/></svg>