<?xml version="1.0" encoding="iso-8859-1"?>
<!-- Generator: Adobe Illustrator 19.0.0, SVG Export Plug-In . SVG Version: 6.00 Build 0)  -->
<svg version="1.1" id="Capa_1" xmlns="http://www.w3.org/2000/svg" xmlns:xlink="http://www.w3.org/1999/xlink" x="0px" y="0px"
	 viewBox="0 0 512 512" style="enable-background:new 0 0 512 512;" xml:space="preserve">
<path style="fill:#FFCB5A;" d="M430.521,132.59c4.758,6.276,9.145,12.818,13.153,19.597c6.426,10.743,11.838,22.06,16.155,33.81
	c5.747,15.439,9.516,31.55,11.211,47.934c1.916,16.975,1.615,34.127-0.883,51.023c-15.996,110.989-118.943,187.992-229.923,171.988
	c-60.681-8.748-114.158-44.447-145.514-97.13c-28.257-47.669-35.875-104.783-21.098-158.19
	C103.68,93.564,215.64,30.332,323.69,60.39C366.204,72.21,403.703,97.554,430.521,132.59z"/>
<path style="fill:#F38A68;" d="M165.429,81.479c35.381-21.133,76.385-30.905,117.495-27.983
	c-44.05,34.251-39.901,49.523-93.308,87.393c-54.554,38.577-67.001,28.425-115.994,60.734
	C87.534,151.208,120.444,108.147,165.429,81.479z"/>
<path style="fill:#D95354;" d="M443.674,152.188c6.426,10.743,11.838,22.06,16.155,33.81c5.747,15.439,9.516,31.55,11.211,47.934
	l-0.706,0.088c-34.516,14.742-58.615,7.239-86.246,16.861c-27.63,9.622-39.459,20.039-51.288,43.343
	c-11.829,23.305-6.797,47.581-39.283,66.295c-27.719,15.978-43.079,3.884-67.884,11.034s-87.746,35.84-87.746,35.84l-1.677,2.03
	c-16.393-14.212-30.402-30.958-41.49-49.611c-6.321-10.637-11.644-21.839-15.89-33.457l4.502-1.589c0,0,39.901,0,65.324-17.743
	s35.84-60.646,87.04-82.538s67.001-3.884,99.31-12.888c31.603-8.739,85.274-50.67,95.514-79.007
	C435.279,138.867,439.667,145.408,443.674,152.188z"/>
<path style="fill:#E76E54;" d="M471.04,233.931c1.916,16.975,1.615,34.127-0.883,51.023
	c-64.971,38.047-57.732,53.583-125.352,92.513c-68.855,39.636-82.626,27.189-151.481,66.825
	c-20.86-8.342-40.166-20.127-57.114-34.869l1.677-2.03c0,0,62.941-28.601,87.746-35.84s40.165,4.943,67.884-11.034
	c32.486-18.714,27.454-42.99,39.283-66.295c11.829-23.305,23.57-33.721,51.288-43.343c27.719-9.622,51.73-2.119,86.246-16.861
	L471.04,233.931z"/>
<path style="fill:#FFCB5A;" d="M430.521,132.59c-10.24,28.337-63.912,70.268-95.514,79.007c-32.309,9.004-48.11-9.004-99.31,12.888
	s-61.617,64.883-87.04,82.538s-65.324,17.743-65.324,17.743l-4.502,1.589c-6.338-17.002-10.311-34.798-11.829-52.877
	c70.974-46.345,82.626-34.074,157.484-84.215s67.972-65.501,138.063-113.611C389.12,89.406,412.328,108.844,430.521,132.59z"/>
<path style="fill:#E76E54;" d="M362.549,75.652c-70.091,48.11-63.117,63.382-138.063,113.611s-86.51,37.87-157.484,84.215
	c-2.145-24.152,0.097-48.499,6.621-71.857c48.993-32.309,61.44-22.157,115.994-60.734c53.407-37.87,49.258-53.142,93.308-87.393
	C310.696,55.375,337.796,62.914,362.549,75.652z"/>
<path style="fill:#F38A68;" d="M344.806,377.468c67.619-38.93,60.381-54.466,125.352-92.513
	c-16.004,110.98-118.952,187.975-229.941,171.97c-16.084-2.322-31.823-6.559-46.892-12.632
	C262.179,404.657,275.95,417.103,344.806,377.468z"/>
<path style="fill:#E76E54;" d="M230.02,274.026c-15.59,9.313-21.398,26.156-26.483,41.022c-2.392,10.372-7.468,19.933-14.724,27.719
	c-30.067,24.055-79.219,26.906-87.437,27.215c3.849,5.764,7.989,11.326,12.403,16.666c15.74-1.015,55.861-5.959,86.042-30.102
	c10.046-9.737,17.117-22.131,20.365-35.743c4.546-13.171,8.828-25.6,18.865-31.612c13.815-8.148,31.62-3.593,39.83,10.187
	c2.657,4.414,3.434,9.71,2.154,14.698c-1.262,5.049-4.502,9.384-8.986,12.023c-5.844,3.522-13.444,1.633-16.967-4.211
	c-0.044-0.071-0.079-0.132-0.115-0.203c-1.969-3.337-0.909-7.636,2.392-9.666c0.742-0.433,1.624-0.565,2.463-0.362
	c0.794,0.203,1.474,0.715,1.88,1.43l15.245-8.898c-2.772-4.793-7.371-8.271-12.738-9.631c-5.394-1.377-11.114-0.547-15.89,2.313
	c-11.67,7.053-15.448,22.21-8.466,33.916c8.43,14.274,26.827,19.015,41.101,10.584c0.044-0.026,0.088-0.053,0.141-0.079
	c17.629-10.417,23.473-33.156,13.047-50.785c-0.035-0.053-0.071-0.115-0.097-0.168C280.85,268.182,252.213,260.891,230.02,274.026z"
	/>
<path style="fill:#D95354;" d="M48.552,512H30.897v-26.483c0-14.627-11.855-26.483-26.483-26.483v-17.655
	c14.627,0,26.483-11.855,26.483-26.483v-26.483h17.655v26.483c0,14.627,11.855,26.483,26.483,26.483v17.655
	c-14.627,0-26.483,11.855-26.483,26.483V512z M30.897,450.207c3.337,2.516,6.312,5.491,8.828,8.828
	c2.516-3.337,5.491-6.312,8.828-8.828c-3.337-2.516-6.312-5.491-8.828-8.828C37.208,444.716,34.233,447.691,30.897,450.207z"/>
<g>
	<path style="fill:#FFCB5A;" d="M489.931,17.655h17.655V35.31h-17.655V17.655z"/>
	<path style="fill:#FFCB5A;" d="M454.621,17.655h17.655V35.31h-17.655V17.655z"/>
	<path style="fill:#FFCB5A;" d="M472.276,0h17.655v17.655h-17.655V0z"/>
	<path style="fill:#FFCB5A;" d="M472.276,35.31h17.655v17.655h-17.655V35.31z"/>
</g>
<circle cx="481.103" cy="467.862" r="8.828"/>
<path d="M269.206,467.827c-116.815,0-211.862-95.047-211.862-211.862S152.391,44.103,269.206,44.103s211.862,95.047,211.862,211.862
	S386.022,467.827,269.206,467.827z M269.206,61.758c-107.087,0-194.207,87.119-194.207,194.207s87.119,194.207,194.207,194.207
	s194.207-87.119,194.207-194.207S376.294,61.758,269.206,61.758z"/>
<path d="M107.123,386.922c-0.035,0-0.071,0-0.106,0l0.053-17.655l0,0c0.6,0,48.922-0.265,81.735-26.509
	c7.142-5.703,10.823-16.375,14.716-27.674c5.129-14.866,10.937-31.709,26.545-40.995c22.131-13.153,50.803-5.862,63.956,16.243
	c10.461,17.629,4.617,40.483-12.994,50.944c-14.239,8.457-32.733,3.769-41.225-10.478c-6.991-11.758-3.125-26.995,8.625-33.977
	c4.776-2.834,10.364-3.663,15.757-2.286c5.376,1.359,9.913,4.749,12.747,9.516l-15.175,9.022c-0.574-0.971-1.457-1.315-1.933-1.439
	c-0.477-0.106-1.404-0.212-2.375,0.344c-3.372,2.013-4.493,6.4-2.489,9.772c3.505,5.87,11.158,7.839,17.046,4.326
	c9.251-5.491,12.323-17.496,6.824-26.756c-8.166-13.718-25.98-18.238-39.724-10.099c-10.072,6.003-14.362,18.432-18.9,31.594
	c-4.546,13.171-9.242,26.792-20.374,35.708C162.498,386.41,110.521,386.922,107.123,386.922z"/>
<path d="M141.586,415.462l-7.309-16.066c2.586-1.183,63.744-28.954,88.867-36.273c11.476-3.337,21.274-3.028,29.917-2.754
	c11.697,0.38,21.831,0.697,36.043-7.477c19.509-11.22,23.066-23.773,27.577-39.68c2.101-7.433,4.273-15.113,8.271-22.969
	c13.118-25.874,26.783-37.455,56.223-47.687c13.241-4.599,25.75-5.606,37.844-6.577c14.689-1.174,29.873-2.392,47.846-10.072
	l6.93,16.234c-20.621,8.81-38.02,10.205-53.363,11.432c-11.502,0.918-22.351,1.792-33.465,5.65
	c-24.947,8.669-35.328,17.417-46.274,38.991c-3.204,6.338-5.058,12.871-7.027,19.791c-4.696,16.578-10.019,35.381-35.752,50.185
	c-18.564,10.673-32.847,10.205-45.427,9.807c-8.024-0.256-15.625-0.494-24.408,2.048
	C204.164,387.037,142.212,415.179,141.586,415.462z"/>
<path d="M83.359,333.559l-0.009-17.655c0.371,0,37.517-0.247,60.292-16.075c8.28-5.747,15.104-15.104,23.005-25.935
	c13.93-19.085,31.267-42.84,65.58-57.512c32.733-14.001,52.189-12.65,69.314-11.458c10.575,0.733,19.703,1.377,31.126-1.81
	c29.219-8.104,82.591-49.717,90.033-74.955l16.931,4.988c-9.34,31.665-67.354,77.303-102.241,86.978
	c-14.362,3.99-25.909,3.187-37.067,2.41c-15.881-1.103-32.327-2.242-61.158,10.081c-29.846,12.765-44.941,33.439-58.253,51.686
	c-8.474,11.608-16.49,22.59-27.198,30.023C126.358,333.347,85.098,333.559,83.359,333.559z"/>
<path d="M414.614,216.461l-8.536-15.448c16.358-9.039,33.536-16.905,51.068-23.367l6.109,16.561
	C446.561,200.369,430.186,207.854,414.614,216.461z"/>
<path d="M70.983,281.423l-9.666-14.777c35.549-23.261,56.867-32.335,77.489-41.11c21.998-9.357,42.778-18.202,80.728-43.591
	c37.994-25.423,54.087-41.278,71.133-58.059c15.863-15.616,32.256-31.762,66.851-55.517l10.002,14.548
	c-33.315,22.872-48.446,37.773-64.468,53.548c-16.87,16.614-34.322,33.801-73.702,60.151
	c-39.327,26.306-61.846,35.893-83.633,45.162C124.893,250.65,105.225,259.019,70.983,281.423z"/>
<path d="M197.729,451.937l-8.81-15.289c35.213-20.277,56.655-27.339,77.4-34.163c20.807-6.841,40.466-13.321,74.116-32.689
	c33.598-19.341,47.819-32.371,62.888-46.159c15.104-13.824,30.72-28.134,65.995-48.428l8.81,15.289
	c-33.589,19.341-47.819,32.371-62.879,46.159c-15.113,13.833-30.729,28.134-66.004,48.437
	c-35.222,20.286-56.673,27.348-77.418,34.172C251.03,426.108,231.371,432.569,197.729,451.937z"/>
<path d="M75.555,210.997l-9.869-14.636c25.379-17.108,41.649-23.49,57.379-29.67c17.081-6.7,33.209-13.03,61.431-33.033
	s39.548-33.13,51.527-47.025c10.302-11.935,20.948-24.276,42.275-40.722l10.778,13.983c-19.906,15.351-29.511,26.483-39.68,38.276
	c-12.147,14.08-24.7,28.646-54.687,49.894c-29.978,21.248-47.881,28.275-65.192,35.063
	C113.991,189.228,99.319,194.984,75.555,210.997z"/>
<g>
</g>
<g>
</g>
<g>
</g>
<g>
</g>
<g>
</g>
<g>
</g>
<g>
</g>
<g>
</g>
<g>
</g>
<g>
</g>
<g>
</g>
<g>
</g>
<g>
</g>
<g>
</g>
<g>
</g>
</svg>
