<?xml version="1.0" encoding="iso-8859-1"?>
<!-- Generator: Adobe Illustrator 19.0.0, SVG Export Plug-In . SVG Version: 6.00 Build 0)  -->
<svg version="1.1" id="Capa_1" xmlns="http://www.w3.org/2000/svg" xmlns:xlink="http://www.w3.org/1999/xlink" x="0px" y="0px"
	 viewBox="0 0 512 512" style="enable-background:new 0 0 512 512;" xml:space="preserve">
<rect x="19.712" y="445.656" transform="matrix(-0.7071 0.7071 -0.7071 -0.7071 405.0641 770.1582)" style="fill:#ECEEFF;" width="46.629" height="46.629"/>
<circle style="fill:#C6ECF6;" cx="255.992" cy="256.013" r="203.946"/>
<g>
	<circle style="fill:#70CEE8;" cx="256.122" cy="330.933" r="46.924"/>
	<circle style="fill:#70CEE8;" cx="227.16" cy="137.614" r="26.423"/>
	<circle style="fill:#70CEE8;" cx="369.263" cy="143.182" r="43.988"/>
	<path style="fill:#70CEE8;" d="M98.019,155.195c-7.76,0-15.14,1.616-21.834,4.516c-13.187,24.57-21.484,52.15-23.593,81.449
		c9.901,14.491,26.551,24.007,45.427,24.007c30.368,0,54.986-24.618,54.986-54.986S128.387,155.195,98.019,155.195z"/>
</g>
<path d="M255.996,62.065l0.557,0.001c0.009,0,0.017,0,0.026,0c5.51,0,9.982-4.46,9.997-9.972c0.014-5.522-4.451-10.008-9.972-10.022
	l-0.608-0.001c-5.522,0-9.997,4.476-9.997,9.997S250.475,62.065,255.996,62.065z"/>
<path d="M256.123,387.852c31.387,0,56.922-25.535,56.922-56.922s-25.535-56.922-56.922-56.922s-56.922,25.535-56.922,56.922
	S224.737,387.852,256.123,387.852z M256.123,294.004c20.362,0,36.927,16.566,36.927,36.927s-16.566,36.927-36.927,36.927
	s-36.927-16.566-36.927-36.927S235.763,294.004,256.123,294.004z"/>
<path d="M263.584,137.615c0-20.082-16.338-36.42-36.42-36.42s-36.42,16.338-36.42,36.42s16.338,36.42,36.42,36.42
	S263.584,157.698,263.584,137.615z M227.164,154.04c-9.058,0-16.426-7.368-16.426-16.426c0-9.058,7.369-16.426,16.426-16.426
	s16.426,7.368,16.426,16.426C243.59,146.672,236.222,154.04,227.164,154.04z"/>
<path d="M379.364,277.408c1.87-1.859,2.929-4.429,2.929-7.068c0-2.629-1.06-5.209-2.929-7.068c-1.859-1.859-4.429-2.929-7.068-2.929
	c-2.629,0-5.199,1.07-7.068,2.929c-1.859,1.859-2.929,4.439-2.929,7.068c0,2.639,1.07,5.209,2.929,7.068
	c1.859,1.87,4.439,2.929,7.068,2.929C374.935,280.337,377.504,279.277,379.364,277.408z"/>
<path d="M361.259,20.076c2.629,0,5.209-1.07,7.068-2.929c1.87-1.86,2.929-4.439,2.929-7.068s-1.06-5.209-2.929-7.068
	c-1.859-1.86-4.429-2.929-7.068-2.929c-2.629,0-5.209,1.07-7.068,2.929c-1.859,1.86-2.929,4.439-2.929,7.068s1.07,5.209,2.929,7.068
	C356.051,19.006,358.629,20.076,361.259,20.076z"/>
<path d="M509,194.24c1.859-1.86,2.929-4.439,2.929-7.068c0-2.629-1.07-5.209-2.929-7.068s-4.439-2.929-7.068-2.929
	c-2.629,0-5.209,1.07-7.068,2.929c-1.859,1.86-2.929,4.439-2.929,7.068c0,2.629,1.07,5.209,2.929,7.068s4.439,2.929,7.068,2.929
	S507.14,196.099,509,194.24z"/>
<path d="M220.096,224.952c-1.86,1.86-2.929,4.439-2.929,7.068c0,2.629,1.07,5.209,2.929,7.068s4.439,2.929,7.068,2.929
	s5.209-1.07,7.068-2.929c1.86-1.86,2.929-4.439,2.929-7.068c0-2.629-1.07-5.209-2.929-7.068c-1.86-1.86-4.439-2.929-7.068-2.929
	C224.535,222.023,221.955,223.092,220.096,224.952z"/>
<path d="M354.191,362.915c-1.859,1.859-2.929,4.439-2.929,7.068s1.07,5.209,2.929,7.068c1.859,1.859,4.439,2.929,7.068,2.929
	s5.209-1.07,7.068-2.929c1.87-1.859,2.929-4.439,2.929-7.068s-1.06-5.209-2.929-7.068c-1.859-1.859-4.439-2.929-7.068-2.929
	S356.051,361.056,354.191,362.915z"/>
<path d="M50.104,428.935c-3.904-3.904-10.234-3.904-14.139,0L2.992,461.907c-3.904,3.904-3.904,10.234,0,14.139l32.972,32.972
	c1.952,1.952,4.511,2.928,7.069,2.928c2.558,0,5.118-0.976,7.069-2.928l32.972-32.972c3.904-3.904,3.904-10.234,0-14.139
	L50.104,428.935z M43.034,487.81l-18.833-18.834l18.834-18.834l18.833,18.834L43.034,487.81z"/>
<path d="M453.557,44.456h13.996v14.384c0,5.522,4.476,9.997,9.997,9.997s9.997-4.476,9.997-9.997V44.456h13.996
	c5.522,0,9.997-4.476,9.997-9.997s-4.476-9.997-9.997-9.997h-13.996V10.078c0-5.522-4.476-9.997-9.997-9.997
	s-9.997,4.476-9.997,9.997v14.383h-13.996c-5.522,0-9.997,4.476-9.997,9.997S448.036,44.456,453.557,44.456z"/>
<path d="M506.78,361.662c-1.191-5.391-6.527-8.796-11.919-7.604c-5.392,1.192-8.796,6.528-7.604,11.919
	c7.064,31.961,9.698,75.846-17.876,103.421c-26.254,26.255-72.88,29.815-131.291,10.03c-11.785-3.992-23.741-8.844-35.779-14.476
	c39.466-8.667,75.708-28.398,104.967-57.657c40.408-40.408,62.662-94.134,62.662-151.281c0-49.29-17.168-97.399-48.343-135.465
	c-30.742-37.537-73.659-63.742-120.847-73.788c-5.399-1.15-10.71,2.295-11.86,7.697c-1.15,5.401,2.296,10.71,7.697,11.86
	c21.856,4.653,42.234,12.995,60.545,24.273c-23.945,5.521-41.858,26.998-41.858,52.595c0,29.768,24.218,53.986,53.986,53.986
	c25.448,0,46.826-17.704,52.498-41.44c17.939,29.555,28.188,64.026,28.188,100.284c0,101.503-78.38,185.033-177.793,193.27
	c-40.292-22.978-80.694-54.162-117.979-91.447S85.705,280.151,62.727,239.86c2.137-25.688,9.323-50.129,20.641-72.213
	c10.529-3.641,21.876-3.266,32.21,1.114c11.064,4.69,19.64,13.407,24.147,24.547c4.507,11.14,4.407,23.368-0.283,34.431
	c-4.69,11.064-13.407,19.64-24.547,24.147c-5.119,2.07-7.589,7.899-5.519,13.018c1.574,3.89,5.318,6.25,9.271,6.25
	c1.249,0,2.518-0.235,3.746-0.732c16.091-6.51,28.682-18.897,35.457-34.878s6.919-33.644,0.409-49.734
	c-6.51-16.091-18.897-28.682-34.878-35.457c-8.529-3.615-17.535-5.323-26.528-5.159c28.123-40.389,71.343-69.872,122.42-79.658
	c5.423-1.039,8.977-6.277,7.937-11.7c-1.039-5.423-6.276-8.978-11.7-7.937c-85.001,16.285-150.285,82.002-168.409,163.89
	c-5.651-12.068-10.516-24.054-14.518-35.868C12.798,115.51,16.36,68.883,42.613,42.63c26.729-26.729,74.347-29.95,134.083-9.069
	c5.214,1.823,10.914-0.926,12.737-6.138c1.822-5.212-0.927-10.914-6.138-12.737C115.912-8.868,60.93-3.964,28.474,28.491
	C-3.444,60.41-8.711,114.337,13.645,180.336c7.123,21.03,16.811,42.544,28.732,64.089c-0.207,3.842-0.325,7.704-0.325,11.589
	c0,57.147,22.254,110.872,62.662,151.281s94.134,62.662,151.281,62.662c3.885,0,7.753-0.112,11.604-0.317
	c21.539,11.919,43.049,21.602,64.074,28.724C358.575,507.476,383.47,512,405.687,512c32.29,0,58.923-9.555,77.832-28.464
	C510.415,456.64,518.459,414.496,506.78,361.662z M403.251,143.184c0,18.743-15.248,33.991-33.991,33.991
	s-33.991-15.248-33.991-33.991s15.248-33.991,33.991-33.991c8.456,0,16.194,3.11,22.147,8.238c1.282,1.258,2.548,2.531,3.795,3.824
	C400.217,127.179,403.251,134.833,403.251,143.184z M63.415,278.991c21.23,31.963,47.093,63.458,76.62,92.984
	c29.527,29.527,61.022,55.389,92.985,76.62C144.405,438.088,73.923,367.606,63.415,278.991z"/>
<path d="M482.82,317.889c-5.197,1.866-7.887,7.619-6.021,12.816c1.465,4.081,5.311,6.623,9.411,6.623
	c1.122,0,2.261-0.19,3.377-0.591c5.197-1.866,7.897-7.591,6.032-12.788c-0.009-0.026-0.025-0.07-0.039-0.105
	C493.695,318.679,487.997,316.028,482.82,317.889z"/>
<g>
</g>
<g>
</g>
<g>
</g>
<g>
</g>
<g>
</g>
<g>
</g>
<g>
</g>
<g>
</g>
<g>
</g>
<g>
</g>
<g>
</g>
<g>
</g>
<g>
</g>
<g>
</g>
<g>
</g>
</svg>
