<svg height="480pt" viewBox="0 0 480.35065 480" width="480pt" xmlns="http://www.w3.org/2000/svg"><path d="m471.980469 240.203125c0 128.128906-103.871094 232-232 232-128.128907 0-232-103.871094-232-232s103.871093-232 232-232c128.128906 0 232 103.871094 232 232zm0 0" fill="#a8a8a8"/><path d="m269.234375 10.058594c-87.441406-11.101563-173.621094 28.304687-222.421875 101.707031s-51.789062 168.121094-7.710938 244.453125c74.085938 97.261719 210.945313 120.332031 312.824219 52.730469 101.878907-67.601563 133.808594-202.667969 72.980469-308.730469-37.589844-49.835938-93.734375-82.355469-155.671875-90.160156zm0 0" fill="#b9b9b9"/><path d="m88.003906 384.179688c-4.117187-.023438-7.542968-3.167969-7.917968-7.265626-.378907-4.097656 2.414062-7.8125 6.453124-8.589843l32.121094-6.023438c2.863282-.664062 5.859375.292969 7.804688 2.5 1.945312 2.203125 2.523437 5.296875 1.511718 8.054688-1.015624 2.757812-3.464843 4.738281-6.371093 5.15625l-32.121094 6.023437c-.488281.09375-.984375.144532-1.480469.144532zm0 0" fill="#a8a8a8"/><path d="m144.003906 368.179688c-3.445312 0-6.5-2.203126-7.589844-5.472657-1.089843-3.265625.035157-6.863281 2.789063-8.929687l32-24c3.535156-2.648438 8.550781-1.933594 11.199219 1.601562 2.652344 3.535156 1.9375 8.550782-1.597656 11.199219l-32 24c-1.386719 1.039063-3.070313 1.601563-4.800782 1.601563zm0 0" fill="#a8a8a8"/><path d="m204.003906 156.179688c0 24.300781-19.699218 44-44 44-24.300781 0-44-19.699219-44-44 0-24.300782 19.699219-44 44-44 24.300782 0 44 19.699218 44 44zm0 0" fill="#cdcdcd"/><path d="m116.003906 156.179688c.007813 1.683593.109375 3.367187.3125 5.039062 14.289063 9.230469 32.625 9.367188 47.050782.359375 14.429687-9.011719 22.347656-25.550781 20.324218-42.4375-13.53125-8.683594-30.726562-9.285156-44.835937-1.566406-14.105469 7.71875-22.871094 22.523437-22.851563 38.605469zm0 0" fill="#a8a8a8"/><path d="m304.003906 296.179688c-.351562 0-.707031-.023438-1.054687-.074219l-120-16c-4.296875-.667969-7.273438-4.648438-6.699219-8.960938.574219-4.308593 4.488281-7.371093 8.808594-6.894531l118.015625 15.738281 62.121093-23.304687c4.140626-1.546875 8.75.554687 10.296876 4.695312 1.546874 4.140625-.554688 8.75-4.695313 10.296875l-64 24c-.894531.332031-1.839844.503907-2.792969.503907zm0 0" fill="#cdcdcd"/><path d="m420.003906 256.179688c0 15.464843-12.535156 28-28 28s-28-12.535157-28-28c0-15.464844 12.535156-28 28-28s28 12.535156 28 28zm0 0" fill="#cdcdcd"/><path d="m360.003906 136.179688c0 13.253906-10.746094 24-24 24s-24-10.746094-24-24c0-13.253907 10.746094-24 24-24s24 10.746093 24 24zm0 0" fill="#cdcdcd"/><path d="m360.003906 360.179688c0 8.835937-7.164062 16-16 16-8.835937 0-16-7.164063-16-16 0-8.835938 7.164063-16 16-16 8.835938 0 16 7.164062 16 16zm0 0" fill="#cdcdcd"/><path d="m264.003906 368.179688c0 8.835937-7.164062 16-16 16-8.835937 0-16-7.164063-16-16 0-8.835938 7.164063-16 16-16 8.835938 0 16 7.164062 16 16zm0 0" fill="#939393"/><path d="m247.875 472.066406c.007812-2.847656-1.519531-5.476562-4-6.878906l-20.398438-11.335938c-22.410156-12.503906-41.859374-29.695312-57.015624-50.402343-2.609376-3.566407-7.613282-4.347657-11.183594-1.742188-3.570313 2.605469-4.351563 7.613281-1.746094 11.183594 16.53125 22.570313 37.734375 41.308594 62.167969 54.9375l6.664062 3.695313c8.488281.652343 17.003907.832031 25.511719.542968zm0 0" fill="#b6b6b6"/><path d="m166.46875 403.460938c-2.609375-3.570313-7.613281-4.351563-11.183594-1.746094-3.570312 2.605468-4.351562 7.613281-1.746094 11.183594 8.472657 11.566406 18.207032 22.152343 29.015626 31.570312 4.03125.722656 8.105468 1.351562 12.21875 1.886719 6.328124.800781 12.621093 1.273437 18.886718 1.601562-18.316406-11.828125-34.3125-26.910156-47.191406-44.496093zm0 0" fill="#cdcdcd"/><path d="m326.46875 412.898438c2.605469-3.570313 1.824219-8.578126-1.746094-11.183594-3.570312-2.605469-8.574218-1.824219-11.183594 1.746094-15.15625 20.703124-34.601562 37.894531-57.007812 50.398437l-8.527344 4.71875v-26.398437c0-4.417969-3.582031-8-8-8-4.417968 0-8 3.582031-8 8v39.855468c8.519532.316406 17.050782.164063 25.550782-.457031l6.746093-3.742187c24.433594-13.628907 45.636719-32.367188 62.167969-54.9375zm0 0" fill="#b6b6b6"/><g fill="#cdcdcd"><path d="m313.539062 403.460938c-11.082031 15.125-24.484374 28.410156-39.710937 39.359374 12.765625-2.816406 25.269531-6.707031 37.375-11.632812 5.464844-5.773438 10.566406-11.882812 15.273437-18.289062 2.605469-3.570313 1.824219-8.578126-1.746093-11.183594-3.570313-2.605469-8.574219-1.824219-11.183594 1.746094zm0 0"/><path d="m232.003906 448.058594c5.375-.175782 10.703125-.566406 16-1.121094v-14.757812c0-4.417969-3.582031-8-8-8-4.417968 0-8 3.582031-8 8zm0 0"/><path d="m352.003906 360.179688c-2.832031-.003907-5.449218-1.503907-6.882812-3.945313-1.4375-2.441406-1.472656-5.460937-.101563-7.933594l40-72c1.335938-2.59375 3.976563-4.25 6.894531-4.328125 2.914063-.078125 5.640626 1.433594 7.113282 3.949219 1.476562 2.511719 1.464844 5.632813-.023438 8.136719l-40 72c-1.410156 2.542968-4.089844 4.121094-7 4.121094zm0 0"/><path d="m376.003906 208.179688c-2.867187.007812-5.519531-1.519532-6.953125-4l-32-56c-1.5-2.488282-1.535156-5.589844-.089843-8.109376 1.441406-2.519531 4.136718-4.058593 7.039062-4.023437s5.558594 1.640625 6.941406 4.195313l32 56c2.1875 3.835937.855469 8.71875-2.976562 10.914062-1.207032.683594-2.574219 1.035156-3.960938 1.023438zm0 0"/><path d="m408.003906 144.179688c-.382812 0-.765625-.027344-1.144531-.082032l-56-8c-4.375-.625-7.410156-4.679687-6.785156-9.054687.628906-4.375 4.683593-7.410157 9.058593-6.785157l56 8c4.15625.59375 7.148438 4.296876 6.851563 8.488282-.296875 4.1875-3.78125 7.433594-7.980469 7.433594zm0 0"/><path d="m296.003906 192.179688c-3.078125 0-5.882812-1.761719-7.214844-4.535157-1.332031-2.773437-.957031-6.0625.964844-8.464843l32-40c2.761719-3.453126 7.800782-4.011719 11.25-1.25 3.449219 2.761718 4.007813 7.796874 1.246094 11.25l-32 40c-1.515625 1.898437-3.816406 3-6.246094 3zm0 0"/><path d="m56.003906 240.179688h16v16h-16zm0 0"/><path d="m88.003906 224.179688h16v16h-16zm0 0"/></g><path d="m64.003906 200.179688h16v16h-16zm0 0" fill="#a8a8a8"/><path d="m40.003906 168.179688h16v16h-16zm0 0" fill="#cdcdcd"/><path d="m72.003906 160.179688h16v16h-16zm0 0" fill="#a8a8a8"/><path d="m56.003906 128.179688h16v16h-16zm0 0" fill="#a8a8a8"/><path d="m416.003906 456.179688h16v16h-16zm0 0" fill="#fbb540"/><path d="m24.003906 464.179688h16v16h-16zm0 0" fill="#fbb540"/><path d="m24.003906 416.179688h16v16h-16zm0 0" fill="#fbd699"/><path d="m48.003906 440.179688h16v16h-16zm0 0" fill="#fbb540"/><path d="m.00390625 440.179688h15.99999975v16h-15.99999975zm0 0" fill="#fbd699"/><path d="m456.003906 448.179688h16v16h-16zm0 0" fill="#fbb540"/><path d="m432.003906 416.179688h16v16h-16zm0 0" fill="#fbd699"/><path d="m464.003906.179688h16v16h-16zm0 0" fill="#fbd699"/><path d="m464.003906 40.179688h16v16h-16zm0 0" fill="#fbd699"/><path d="m416.003906 24.179688h16v16h-16zm0 0" fill="#fbb540"/><path d="m8.003906 8.179688h16v16h-16zm0 0" fill="#fbb540"/><path d="m56.003906 24.179688h16v16h-16zm0 0" fill="#c0f5f9"/><path d="m32.003906 208.179688h16v16h-16zm0 0" fill="#cdcdcd"/><path d="m48.003906 304.179688h16v16h-16zm0 0" fill="#a8a8a8"/><path d="m72.003906 328.179688h16v16h-16zm0 0" fill="#939393"/><path d="m272.003906 120.179688h16v16h-16zm0 0" fill="#a8a8a8"/><path d="m248.003906 88.179688h16v16h-16zm0 0" fill="#a8a8a8"/><path d="m288.003906 88.179688h16v16h-16zm0 0" fill="#a8a8a8"/><path d="m320.003906 72.179688h16v16h-16zm0 0" fill="#a8a8a8"/><path d="m143.011719 264.242188-63.503907 7.9375h-69.238281c.742188 5.375 1.597657 10.726562 2.710938 16h67.023437c.332032 0 .664063-.023438.992188-.066407l64-8c2.886718-.289062 5.390625-2.125 6.542968-4.789062 1.148438-2.667969.761719-5.746094-1.007812-8.046875-1.769531-2.300782-4.648438-3.460938-7.519531-3.035156zm0 0" fill="#a8a8a8"/><path d="m318.867188 48.675781 23.664062-16.570312c-5.597656-2.742188-11.199219-5.308594-17.03125-7.613281l-15.808594 11.070312c-30.46875 21.191406-68.097656 29.425781-104.632812 22.898438-19.242188-3.519532-38.980469-3.347657-58.160156.511718l-12.550782 2.511719c-14.542968 2.878906-29.453125 3.417969-44.167968 1.597656-5.128907 4.335938-10.046876 8.914063-14.792969 13.679688 10.433593 2.222656 21.0625 3.367187 31.730469 3.417969 10.207031.003906 20.390624-1 30.398437-3l12.542969-2.511719c17.203125-3.457031 34.902344-3.617188 52.160156-.464844 40.730469 7.304687 82.695312-1.878906 116.648438-25.527344zm0 0" fill="#a8a8a8"/><path d="m471.851562 247.273438-31.273437 15.671874-24.574219-16.839843-4.441406 16.730469 24 16c2.386719 1.585937 5.4375 1.78125 8 .503906l26.914062-13.457032c.726563-6.230468 1.183594-12.441406 1.375-18.609374zm0 0" fill="#b6b6b6"/><path d="m440.578125 262.945312-24.574219-16.839843-4.441406 16.730469 24 16c2.386719 1.585937 5.4375 1.78125 8 .503906l4.257812-2.128906c1.792969-6.617188 3.351563-13.335938 4.574219-20.191407zm0 0" fill="#cdcdcd"/><path d="m128.003906 360.179688c-3.046875.015624-5.839844-1.699219-7.199218-4.425782l-16-32c-1.976563-3.953125-.371094-8.761718 3.582031-10.734375 3.957031-1.976562 8.761719-.371093 10.738281 3.582031l16 32c1.234375 2.476563 1.105469 5.414063-.34375 7.769532-1.449219 2.355468-4.011719 3.796875-6.777344 3.808594zm0 0" fill="#a8a8a8"/><path d="m184.003906 392.179688c-.65625-.003907-1.3125-.082032-1.953125-.242188l-32-8c-4.253906-1.097656-6.828125-5.425781-5.761719-9.6875 1.070313-4.265625 5.378907-6.867188 9.652344-5.832031l32 8c3.914063.984375 6.484375 4.730469 5.992188 8.738281-.492188 4.003906-3.890625 7.019531-7.929688 7.023438zm0 0" fill="#a8a8a8"/><path d="m128.003906 416.179688c-.855468-.003907-1.707031-.140626-2.519531-.410157-4.1875-1.390625-6.457031-5.910156-5.074219-10.101562l8-24.128907c1.390625-4.199218 5.921875-6.472656 10.117188-5.082031 4.199218 1.386719 6.472656 5.917969 5.085937 10.113281l-8 24.121094c-1.085937 3.28125-4.15625 5.492188-7.609375 5.488282zm0 0" fill="#a8a8a8"/><path d="m288.003906 340.179688c0 11.046874-8.953125 20-20 20s-20-8.953126-20-20c0-11.046876 8.953125-20 20-20s20 8.953124 20 20zm0 0" fill="#939393"/><path d="m160.003906 368.179688c0 13.253906-10.746094 24-24 24s-24-10.746094-24-24c0-13.253907 10.746094-24 24-24s24 10.746093 24 24zm0 0" fill="#a8a8a8"/><path d="m270.269531 2.089844c-131.496093-16.714844-251.640625 76.332031-268.355469 207.824218-16.710937 131.492188 76.332032 251.640626 207.824219 268.351563 10.203125 1.296875 20.476563 1.949219 30.761719 1.953125 126.699219-.078125 231.515625-98.632812 239.386719-225.085938 7.875-126.457031-83.90625-237.246093-209.617188-253.042968zm-30.425781 14.089844c26.484375 0 52.757812 4.703124 77.601562 13.886718l-7.824218 5.496094c-30.386719 21.320312-68.054688 29.570312-104.570313 22.90625-19.222656-3.5625-38.953125-3.390625-58.109375.503906l-12.601562 2.476563c-10.652344 2.113281-21.519532 2.949219-32.367188 2.488281 39.320313-30.890625 87.867188-47.707031 137.871094-47.757812zm223.816406 235.199218-23.082031 11.542969-17.039063-11.359375c-2.367187-16.609375-17.1875-28.550781-33.921874-27.335938-16.730469 1.214844-29.671876 15.175782-29.613282 31.953126 0 .800781.175782 1.597656.238282 2.398437l-57.167969 21.441406-118.015625-15.769531c-4.320313-.476562-8.234375 2.585938-8.808594 6.894531-.574219 4.3125 2.402344 8.292969 6.699219 8.960938l120 16c.347656.050781.703125.074219 1.054687.074219.957032 0 1.910156-.167969 2.808594-.503907l58.488281-21.898437c3.519531 5.355468 8.558594 9.53125 14.472657 12l-28.683594 51.640625c-2.285156-.769531-4.675782-1.1875-7.085938-1.238281-11.035156-.046876-20.691406 7.414062-23.425781 18.109374-2.734375 10.691407 2.152344 21.871094 11.859375 27.128907 9.703125 5.253906 21.738281 3.238281 29.199219-4.894531 7.460937-8.128907 8.4375-20.296876 2.367187-29.511719l32.953125-59.335938c10.648438-1.6875 19.734375-8.621093 24.167969-18.449219l14.398438 9.601563c2.382812 1.585937 5.4375 1.78125 8 .503906l18.398437-9.191406c-13.242187 98.152344-89.359375 175.964844-187.199219 191.367187 20.066406-12.902343 37.589844-29.378906 51.695313-48.617187 2.609375-3.570313 1.828125-8.578125-1.742188-11.183594-3.570312-2.605469-8.578125-1.824219-11.183593 1.742188-15.15625 20.707031-34.601563 37.898437-57.007813 50.402343l-8.480469 4.726563v-26.398437c0-4.417969-3.582031-8-8-8-4.417968 0-8 3.582031-8 8v26.398437l-8.519531-4.734375c-22.410156-12.503906-41.859375-29.695312-57.015625-50.402344-2.609375-3.566406-7.613281-4.347656-11.183594-1.742187-3.570312 2.605469-4.351562 7.613281-1.746094 11.183593 14.058594 19.160157 31.5 35.585938 51.472657 48.464844-91.082031-14.414062-164.050781-83.121094-183.921875-173.167968h58.914062c.332032 0 .664063-.023438.992188-.066407l64-8c2.886718-.289062 5.390625-2.125 6.542968-4.789062 1.148438-2.667969.761719-5.746094-1.007812-8.046875-1.769531-2.300782-4.648438-3.460938-7.519531-3.035156l-63.503907 7.9375h-61.238281c-10.28125-71.558594 14.609375-143.675782 66.832031-193.664063 7.289063 1.066406 14.644532 1.621094 22.015626 1.664063 10.207031.007812 20.390624-1.007813 30.398437-3.03125l12.601563-2.480469c17.167968-3.507813 34.855468-3.664063 52.085937-.464844 9.15625 1.683594 18.449219 2.535156 27.761719 2.535156 31.8125.03125 62.859375-9.78125 88.878906-28.085937l16.113281-11.328125c82.300781 38.691406 133.125 123.21875 128.703125 214.054687zm-55.65625 4.800782c0 8.835937-7.164062 16-16 16-8.835937 0-16-7.164063-16-16 0-8.835938 7.164063-16 16-16 8.835938 0 16 7.164062 16 16zm-56 104c0 4.417968-3.582031 8-8 8-4.417968 0-8-3.582032-8-8 0-4.417969 3.582032-8 8-8 4.417969 0 8 3.582031 8 8zm0 0"/><path d="m188.074219 112.476562-.070313-.074218c-.144531-.085938-.304687-.152344-.449218-.238282-1.800782-1.132812-3.671876-2.152343-5.597657-3.058593-.257812-.109375-.496093-.246094-.753906-.359375-2.078125-.941406-4.214844-1.742188-6.398437-2.398438-.25-.074218-.503907-.128906-.753907-.191406-1.886719-.527344-3.804687-.945312-5.742187-1.257812-.535156-.078126-1.066406-.175782-1.601563-.238282-2.222656-.308594-4.460937-.46875-6.703125-.480468-28.703125.035156-51.964844 23.296874-52 52 .007813 1.960937.125 3.921874.351563 5.871093v.097657c2.734375 24.042968 21.695312 43.019531 45.738281 45.78125 24.039062 2.761718 46.804688-11.429688 54.917969-34.226563 8.113281-22.800781-.570313-48.179687-20.953125-61.226563zm-64.070313 43.703126c.023438-19.875 16.125-35.980469 36-36 2.1875.023437 4.371094.242187 6.519532.65625.375.070312.761718.121093 1.128906.199218 1.910156.425782 3.785156 1.011719 5.597656 1.742188.515625.210937 1.019531.425781 1.523438.65625.503906.234375.796874.457031 1.222656.664062v.082032c-.007813 12.453124-6.449219 24.019531-17.035156 30.582031-10.585938 6.558593-23.808594 7.183593-34.964844 1.648437.007812-.078125.007812-.152344.007812-.230468zm36 36c-12.492187-.03125-24.070312-6.554688-30.566406-17.222657 14.046875 3.152344 28.773438.15625 40.46875-8.242187 10.15625-7.136719 17.425781-17.667969 20.496094-29.695313 3.65625 5.722657 5.597656 12.371094 5.601562 19.160157-.023437 19.871093-16.128906 35.976562-36 36zm0 0"/><path d="m336.003906 104.179688c-11.890625-.023438-22.808594 6.5625-28.339844 17.089843-5.527343 10.523438-4.753906 23.25 2.011719 33.03125l-19.921875 24.878907c-2.757812 3.449218-2.199218 8.484374 1.25 11.246093 3.449219 2.761719 8.488282 2.203125 11.246094-1.246093l19.578125-24.457032c7.894531 4.097656 17.175781 4.574219 25.449219 1.304688l21.78125 38.152344c1.433594 2.480468 4.082031 4.003906 6.945312 4 1.402344.007812 2.785156-.355469 4-1.054688 3.832032-2.195312 5.164063-7.078125 2.976563-10.914062l-22.585938-39.519532c4.335938-5.125 6.929688-11.496094 7.410157-18.191406l39.09375 5.597656c4.375.628906 8.429687-2.410156 9.058593-6.78125.625-4.375-2.410156-8.429687-6.785156-9.058594l-44.671875-6.398437c-5.390625-10.808594-16.417969-17.648437-28.496094-17.679687zm0 48c-8.835937 0-16-7.164063-16-16 0-8.835938 7.164063-16 16-16 8.835938 0 16 7.164062 16 16 0 8.835937-7.164062 16-16 16zm0 0"/><path d="m233.21875 387.066406c4.1875 3.304688 9.363281 5.105469 14.695312 5.113282 1.019532-.003907 2.03125-.0625 3.042969-.183594 12.171875-1.441406 21.238281-11.929688 20.902344-24.183594 11.40625-1.550781 20.710937-9.902344 23.480469-21.074219 2.765625-11.167969-1.5625-22.898437-10.925782-29.59375-9.363281-6.695312-21.859374-6.996093-31.535156-.765625-9.679687 6.234375-14.570312 17.738282-12.347656 29.03125-8.40625 2.765625-14.609375 9.933594-16.136719 18.652344-1.527343 8.714844 1.863281 17.566406 8.824219 23.027344zm34.785156-58.886718c6.628906 0 12 5.371093 12 12 0 6.625-5.371094 12-12 12s-12-5.375-12-12c0-6.628907 5.371094-12 12-12zm-26.289062 35.070312c1.308594-1.675781 3.238281-2.75 5.351562-2.984375.3125-.050781.625-.078125.9375-.085937.191406 0 .382813.078124.574219.09375 1.980469 1.871093 4.21875 3.445312 6.648437 4.671874.335938.703126.554688 1.453126.65625 2.226563.28125 2.105469-.292968 4.238281-1.597656 5.917969-1.292968 1.664062-3.203125 2.738281-5.296875 2.976562-2.097656.277344-4.222656-.296875-5.894531-1.59375-1.671875-1.300781-2.753906-3.214844-3.003906-5.316406-.269532-2.105469.316406-4.234375 1.625-5.90625zm0 0"/><path d="m56.003906 240.179688h16v16h-16zm0 0"/><path d="m88.003906 224.179688h16v16h-16zm0 0"/><path d="m64.003906 200.179688h16v16h-16zm0 0"/><path d="m40.003906 168.179688h16v16h-16zm0 0"/><path d="m72.003906 160.179688h16v16h-16zm0 0"/><path d="m56.003906 128.179688h16v16h-16zm0 0"/><path d="m416.003906 456.179688h16v16h-16zm0 0"/><path d="m24.003906 464.179688h16v16h-16zm0 0"/><path d="m24.003906 416.179688h16v16h-16zm0 0"/><path d="m48.003906 440.179688h16v16h-16zm0 0"/><path d="m.00390625 440.179688h15.99999975v16h-15.99999975zm0 0"/><path d="m456.003906 448.179688h16v16h-16zm0 0"/><path d="m432.003906 416.179688h16v16h-16zm0 0"/><path d="m464.003906.179688h16v16h-16zm0 0"/><path d="m464.003906 40.179688h16v16h-16zm0 0"/><path d="m416.003906 24.179688h16v16h-16zm0 0"/><path d="m8.003906 8.179688h16v16h-16zm0 0"/><path d="m56.003906 24.179688h16v16h-16zm0 0"/><path d="m32.003906 208.179688h16v16h-16zm0 0"/><path d="m48.003906 304.179688h16v16h-16zm0 0"/><path d="m72.003906 328.179688h16v16h-16zm0 0"/><path d="m272.003906 120.179688h16v16h-16zm0 0"/><path d="m248.003906 88.179688h16v16h-16zm0 0"/><path d="m288.003906 88.179688h16v16h-16zm0 0"/><path d="m320.003906 72.179688h16v16h-16zm0 0"/><path d="m147.738281 347.378906c-4.445312-2.5625-9.605469-3.613281-14.703125-2.992187l-13.832031-27.785157c-1.972656-3.953124-6.78125-5.558593-10.734375-3.582031-3.957031 1.972657-5.558594 6.78125-3.585938 10.734375l13.945313 27.875c-3.144531 3.265625-5.296875 7.363282-6.199219 11.804688l-26.058594 4.890625c-4.035156.773437-6.828124 4.480469-6.457031 8.574219.371094 4.09375 3.78125 7.242187 7.890625 7.28125.496094 0 .992188-.050782 1.480469-.144532l25.3125-4.742187c1.566406 3.042969 3.773437 5.710937 6.472656 7.820312 1.371094 1.046875 2.851563 1.9375 4.414063 2.664063l-5.265625 15.890625c-1.382813 4.191406.886719 8.710937 5.074219 10.101562.808593.269531 1.65625.40625 2.511718.410157 3.449219-.003907 6.507813-2.214844 7.59375-5.488282l6.398438-19.382812c4.273437-1.105469 8.152344-3.382813 11.199218-6.578125l28.800782 7.199219c.65625.167968 1.332031.25 2.007812.25 4.039063-.003907 7.4375-3.019532 7.929688-7.023438.492187-4.007812-2.078125-7.753906-5.992188-8.738281l-26.007812-6.496094c.109375-1.566406.070312-3.140625-.121094-4.703125-.273438-1.980469-.796875-3.917969-1.554688-5.769531l22.546876-16.871094c3.535156-2.648437 4.25-7.664063 1.597656-11.199219-2.648438-3.535156-7.664063-4.25-11.199219-1.601562zm-5.421875 25.746094c-2.332031 3.023438-6.476562 3.976562-9.894531 2.277344-3.417969-1.695313-5.164063-5.574219-4.164063-9.257813 1-3.6875 4.464844-6.152343 8.273438-5.886719 3.808594.261719 6.902344 3.183594 7.382812 6.96875.261719 2.089844-.3125 4.195313-1.597656 5.863282zm0 0"/></svg>