<svg height="480pt" viewBox="0 0 480 480.04942" width="480pt" xmlns="http://www.w3.org/2000/svg"><path d="m472.015625 240.039062c0 128.128907-103.871094 232-232 232-128.132813 0-232-103.871093-232-232 0-128.128906 103.867187-232 232-232 128.128906 0 232 103.871094 232 232zm0 0" fill="#e88623"/><path d="m448.015625 224.039062c.050781-72.492187-33.839844-140.824218-91.585937-184.648437-105.949219-61.125-241.152344-29.496094-308.992188 72.285156-67.835938 101.78125-45 238.746094 52.191406 313.011719 71.765625 41.617188 160.285156 41.746094 232.171875.34375s116.195313-118.035156 116.214844-200.992188zm0 0" fill="#fd9226"/><path d="m268.015625 280.039062c0 11.046876-8.957031 20-20 20-11.046875 0-20-8.953124-20-20 0-11.046874 8.953125-20 20-20 11.042969 0 20 8.953126 20 20zm0 0" fill="#e48422"/><path d="m376.015625 272.039062c0 8.835938-7.164063 16-16 16-8.839844 0-16-7.164062-16-16 0-8.835937 7.160156-16 16-16 8.835937 0 16 7.164063 16 16zm0 0" fill="#fbaf5f"/><path d="m148.679688 322.144531c9.625 9.003907 22.335937 13.976563 35.519531 13.894531h267.015625c2.398437-5.238281 4.640625-10.558593 6.640625-16h-273.65625c-9.09375.027344-17.863281-3.382812-24.554688-9.542968-20.09375-18.441406-50.960937-18.441406-71.054687 0-.324219.308594-.625.648437-.894532 1.007812-6.636718 8.703125-9.128906 19.875-6.824218 30.574219 2.515625 11.121094 9.773437 20.582031 19.863281 25.890625l1.597656.847656c5.597657 2.859375 11.820313 4.277344 18.105469 4.128906 1.925781 0 3.851562-.097656 5.769531-.296874 14.523438-1.511719 25.953125-13.082032 27.285157-27.625.140624-1.554688-.175782-3.113282-.910157-4.488282-4.222656-7.789062-12.414062-12.597656-21.273437-12.496094h-7.199219c-4.417969 0-8 3.582032-8 8 0 4.417969 3.582031 8 8 8h7.199219c2.117187-.011718 4.15625.769532 5.722656 2.191407-1.609375 5.722656-6.546875 9.882812-12.457031 10.496093-4.992188.78125-10.105469.082032-14.703125-2.007812l-1.601563-.847656c-5.957031-3.105469-10.261719-8.65625-11.785156-15.199219-1.292969-5.910156.003906-12.09375 3.570313-16.984375 13.9375-12.3125 34.921874-12.117188 48.625.457031zm0 0" fill="#d37a20"/><path d="m148.679688 322.144531c9.625 9.003907 22.335937 13.976563 35.519531 13.894531h235.015625c2.878906-5.207031 5.527344-10.550781 8-16h-243.015625c-9.09375.027344-17.863281-3.382812-24.554688-9.542968-20.09375-18.441406-50.960937-18.441406-71.054687 0-.324219.308594-.625.648437-.894532 1.007812-6.636718 8.703125-9.128906 19.875-6.824218 30.574219 2.515625 11.121094 9.773437 20.582031 19.863281 25.890625l1.597656.847656c5.597657 2.859375 11.820313 4.277344 18.105469 4.128906 1.925781 0 3.851562-.097656 5.769531-.296874 14.523438-1.511719 25.953125-13.082032 27.285157-27.625.140624-1.554688-.175782-3.113282-.910157-4.488282-4.222656-7.789062-12.414062-12.597656-21.273437-12.496094h-7.199219c-4.417969 0-8 3.582032-8 8 0 4.417969 3.582031 8 8 8h7.199219c2.117187-.011718 4.15625.769532 5.722656 2.191407-1.609375 5.722656-6.546875 9.882812-12.457031 10.496093-4.992188.78125-10.105469.082032-14.703125-2.007812l-1.601563-.847656c-5.957031-3.105469-10.261719-8.65625-11.785156-15.199219-1.292969-5.910156.003906-12.09375 3.570313-16.984375 13.9375-12.3125 34.921874-12.117188 48.625.457031zm0 0" fill="#e48422"/><path d="m175.773438 222.359375-12.589844 3.433594c-33.371094 9.113281-68.632813 8.667969-101.761719-1.28125-16.960937-5.042969-34.511719-7.824219-52.199219-8.273438-.535156 5.265625-.800781 10.601563-1.007812 16 16.472656.363281 32.824218 2.929688 48.613281 7.632813 36 10.804687 74.304687 11.285156 110.5625 1.382812l12.625-3.453125c14.011719-3.820312 28.425781-5.96875 42.941406-6.402343l248.855469.640624c-.183594-5.375-.488281-10.726562-1.03125-16l-248.0625-.671874c-15.871094.472656-31.628906 2.820312-46.945312 6.992187zm0 0" fill="#eea65a"/><path d="m447.8125 231.976562c.089844-2.640624.203125-5.273437.203125-7.9375 0-2.664062-.144531-5.375-.242187-8.0625l-225.054688-.609374c-15.871094.472656-31.628906 2.820312-46.945312 6.992187l-12.589844 3.433594c-33.371094 9.113281-68.632813 8.667969-101.761719-1.28125-16.960937-5.042969-34.511719-7.824219-52.199219-8.273438-.535156 5.265625-.800781 10.59375-1.007812 16 16.472656.363281 32.824218 2.929688 48.613281 7.632813 36 10.804687 74.304687 11.285156 110.5625 1.382812l12.625-3.453125c14.011719-3.820312 28.425781-5.96875 42.941406-6.402343zm0 0" fill="#fbaf5f"/><path d="m460.574219 168.039062-237.390625.640626c-14.605469-.414063-29.105469-2.5625-43.203125-6.398438l-12.574219-3.425781c-36.265625-9.917969-74.585938-9.4375-110.59375 1.382812-12.09375 3.601563-24.527344 5.957031-37.101562 7.03125-1.777344 5.371094-3.386719 10.816407-4.800782 16.363281 15.75-.851562 31.347656-3.558593 46.464844-8.066406 33.128906-9.945312 68.386719-10.386718 101.757812-1.277344l12.585938 3.429688c15.402344 4.191406 31.246094 6.539062 47.199219 6.992188l242.257812-.671876c-1.347656-5.398437-2.878906-10.730468-4.601562-16zm0 0" fill="#f0a85b"/><path d="m444.550781 184.113281c-.933593-5.394531-2.054687-10.726562-3.359375-16l-217.976562.597657c-14.605469-.414063-29.105469-2.5625-43.199219-6.398438l-12.578125-3.425781c-36.269531-9.933594-74.605469-9.464844-110.625 1.351562-12.09375 3.601563-24.527344 5.957031-37.101562 7.03125-1.777344 5.378907-3.386719 10.816407-4.800782 16.363281 15.75-.851562 31.347656-3.558593 46.464844-8.066406 33.128906-9.945312 68.386719-10.386718 101.757812-1.277344l12.585938 3.429688c15.402344 4.191406 31.246094 6.539062 47.199219 6.992188zm0 0" fill="#fbaf5f"/><path d="m362.324219 42.910156-8.503907-1.054687c-22.523437-2.816407-45.339843-2.351563-67.734374 1.375-61.785157 10.265625-124.425782 14.480469-187.03125 12.585937-6.234376 4.78125-12.21875 9.875-17.9375 15.261719 15.542968.738281 31.097656 1.242187 46.664062 1.242187 53.917969 0 107.742188-4.449218 160.929688-13.304687 20.867187-3.484375 42.132812-3.917969 63.128906-1.289063l37.34375 4.664063c-8.480469-7.117187-17.457032-13.628906-26.859375-19.480469zm0 0" fill="#d37a20"/><path d="m360.519531 42.6875-6.699219-.800781c-22.523437-2.816407-45.339843-2.351563-67.734374 1.375-61.789063 10.253906-124.429688 14.460937-187.03125 12.554687-3.117188 2.394532-6.164063 4.859375-9.144532 7.390625l-.054687.03125c-2.976563 2.539063-5.890625 5.144531-8.738281 7.816407 15.542968.738281 31.097656 1.242187 46.664062 1.242187 53.917969.007813 107.742188-4.433594 160.929688-13.28125 20.867187-3.484375 42.132812-3.917969 63.128906-1.289063l29.445312 3.679688c-6.542968-6.648438-13.476562-12.898438-20.765625-18.71875zm0 0" fill="#e48422"/><path d="m439.4375 121.496094c-3.152344-5.289063-6.527344-10.402344-10.078125-15.433594l-25.363281 1.488281c-50.617188 2.960938-101.367188 3.046875-152 .257813-45.257813-2.515625-90.617188-2.742188-135.902344-.6875l-68.375 3.101562c-3.609375 5.335938-6.953125 10.847656-10.113281 16.480469l79.199219-3.601563c44.746093-2.027343 89.5625-1.800781 134.28125.675782 51.242187 2.839844 102.601562 2.757812 153.832031-.25zm0 0" fill="#d87d20"/><g fill="#e48422"><path d="m424.511719 122.375c-2.585938-5.289062-5.328125-10.488281-8.296875-15.535156l-12.21875.710937c-50.617188 2.960938-101.367188 3.046875-152 .257813-45.257813-2.515625-90.617188-2.742188-135.902344-.6875l-68.375 3.101562c-3.609375 5.335938-6.953125 10.847656-10.113281 16.480469l79.199219-3.601563c44.746093-2.027343 89.5625-1.800781 134.28125.675782 51.242187 2.839844 102.601562 2.757812 153.832031-.25zm0 0"/><path d="m128.015625 200.039062c0 8.835938-7.164063 16-16 16-8.839844 0-16-7.164062-16-16 0-8.835937 7.160156-16 16-16 8.835937 0 16 7.164063 16 16zm0 0"/><path d="m50.679688 270.703125h16v16h-16zm0 0"/><path d="m248.015625 417.375h16v16h-16zm0 0"/><path d="m304.015625 417.375h16v16h-16zm0 0"/><path d="m304.015625 80.039062h16v16h-16zm0 0"/><path d="m59.589844 319.542969c-12.578125-6.257813-26.519532-9.285157-40.558594-8.800781 1.726562 5.417968 3.671875 10.730468 5.78125 16 9.609375.417968 19.023438 2.855468 27.625 7.152343 3.953125 1.976563 8.761719.371094 10.738281-3.582031 1.972657-3.957031.367188-8.761719-3.585937-10.738281zm0 0"/></g><path d="m419.445312 387.09375-10.335937-1.375c-48.433594-6.433594-97.390625-8.042969-146.144531-4.800781l-32.6875 2.183593c-10.503906.707032-20.875 2.746094-30.863282 6.074219-20.570312 6.882813-42.742187 7.359375-63.59375 1.375l-6.039062-1.726562c-11.042969-3.164063-22.472656-4.773438-33.960938-4.785157h-37.597656c4.398438 5.542969 9.039063 10.875 13.917969 16h23.722656c10.011719-.003906 19.972657 1.390626 29.597657 4.144532l6.042968 1.71875c23.945313 6.875 49.414063 6.320312 73.039063-1.597656 8.695312-2.898438 17.726562-4.671876 26.871093-5.28125l32.601563-2.183594c47.527344-3.164063 95.257813-1.601563 142.476563 4.664062 4.515624-4.617187 8.851562-9.410156 12.953124-14.410156zm0 0" fill="#f0a85b"/><path d="m262.964844 380.886719-32.6875 2.183593c-10.503906.707032-20.875 2.746094-30.863282 6.074219-20.570312 6.878907-42.742187 7.359375-63.59375 1.375l-6.039062-1.726562c-11.042969-3.152344-22.472656-4.75-33.960938-4.753907h-37.566406c.238282.296876.472656.601563.710938.90625 4.097656 5.109376 8.386718 10.0625 12.890625 14.804688l.285156.289062h23.679687c10.011719-.003906 19.976563 1.390626 29.601563 4.144532l6.039063 1.71875c23.949218 6.875 49.417968 6.320312 73.042968-1.597656 8.695313-2.898438 17.722656-4.671876 26.871094-5.28125l32.640625-2.183594c35.242187-2.335938 70.609375-2.070313 105.8125.800781 5.261719-4.667969 10.296875-9.5625 15.113281-14.679687-40.53125-4.058594-81.328125-4.75-121.976562-2.074219zm0 0" fill="#fbaf5f"/><path d="m248.015625 256.039062c-13.257813 0-24 10.746094-24 24 0 13.253907 10.742187 24 24 24 13.253906 0 24-10.746093 24-24 0-13.253906-10.746094-24-24-24zm0 32c-4.421875 0-8-3.582031-8-8 0-4.417968 3.578125-8 8-8 4.417969 0 8 3.582032 8 8 0 4.417969-3.582031 8-8 8zm0 0"/><path d="m360.015625 248.039062c-13.257813 0-24 10.746094-24 24 0 13.253907 10.742187 24 24 24 13.253906 0 24-10.746093 24-24 0-13.253906-10.746094-24-24-24zm0 32c-4.421875 0-8-3.582031-8-8 0-4.417968 3.578125-8 8-8 4.417969 0 8 3.582032 8 8 0 4.417969-3.582031 8-8 8zm0 0"/><path d="m479.695312 224.039062c-.050781-.664062-.191406-1.320312-.425781-1.945312-1.226562-16.546875-4.175781-32.925781-8.800781-48.863281-.046875-.128907-.054688-.269531-.109375-.390625-6.441406-22.015625-16.015625-42.988282-28.433594-62.273438-.265625-.539062-.59375-1.046875-.976562-1.511718-15.816407-24.199219-35.851563-45.363282-59.144531-62.488282-.335938-.296875-.699219-.566406-1.085938-.800781-89.34375-64.972656-211.550781-60.34375-295.722656 11.203125-.535156.355469-1.023438.78125-1.453125 1.261719-18.304688 15.785156-34.136719 34.226562-46.96875 54.703125-.734375.757812-1.3125 1.65625-1.695313 2.640625-10.867187 17.875-19.335937 37.097656-25.191406 57.175781-.082031.195312-.113281.394531-.175781.601562-14.121094 48.667969-12.441407 100.558594 4.796875 148.207032 0 .074218.050781.152344.082031.226562 10.046875 27.558594 25.0625 53.046875 44.296875 75.199219.242188.332031.511719.652344.796875.949219 45.109375 51.730468 110.238281 81.628906 178.871094 82.109375 68.632812.480469 134.175781-28.5 180.003906-79.59375.167969-.144531.269531-.335938.429687-.496094 18.1875-20.285156 32.796876-43.511719 43.199219-68.691406l.097657-.246094c11.867187-28.863281 17.957031-59.769531 17.929687-90.976563 0-5.03125-.210937-10.007812-.511719-14.960937.082032-.339844.148438-.6875.191406-1.039063zm-239.679687-208c35.5625-.019531 70.613281 8.484376 102.214844 24.800782-18.753907-1.425782-37.605469-.621094-56.167969 2.398437-57.414062 9.539063-115.574219 13.867188-173.769531 12.9375 37.449219-26.164062 82.039062-40.175781 127.722656-40.136719zm-147.449219 55.585938c11.742188.429688 23.496094.703125 35.261719.703125 53.898437-.007813 107.699219-4.449219 160.867187-13.28125 20.867188-3.472656 42.128907-3.914063 63.125-1.3125l21.976563 2.753906c17.503906 13.082031 33.011719 28.632813 46.050781 46.167969l-15.816406.917969c-50.640625 2.921875-101.40625 3-152.058594.242187-25.390625-1.394531-50.703125-2.097656-75.199218-2.097656-19.625 0-40 .464844-60.679688 1.367188l-58.054688 2.632812c10.019532-13.96875 21.605469-26.753906 34.527344-38.09375zm-45.351562 54.597656 69.597656-3.152344c20.402344-.894531 40.578125-1.351562 60-1.351562 24.25 0 49.273438.695312 74.402344 2.066406 51.25 2.808594 102.613281 2.730469 153.855468-.242187l25.351563-1.480469c8.953125 14.449219 16.222656 29.875 21.664063 45.976562l-228.871094.640626c-14.601563-.386719-29.105469-2.519532-43.199219-6.359376l-12.5625-3.441406c-36.277344-9.910156-74.609375-9.445312-110.640625 1.34375-9.242188 2.796875-18.695312 4.84375-28.269531 6.113282 4.878906-13.957032 11.132812-27.394532 18.671875-40.113282zm-23.792969 56.800782c12.890625-1.226563 25.625-3.722657 38.023437-7.457032 33.136719-9.925781 68.394532-10.351562 101.761719-1.222656l12.574219 3.441406c15.414062 4.183594 31.273438 6.507813 47.242188 6.917969l233.910156-.664063c2.703125 10.511719 4.632812 21.207032 5.777344 32l-239.945313-.640624c-15.890625.429687-31.675781 2.75-47.015625 6.921874l-12.566406 3.4375c-33.359375 9.125-68.609375 8.699219-101.738282-1.222656-14.386718-4.308594-29.214843-6.972656-44.199218-7.9375 1.1875-11.339844 3.242187-22.574218 6.152344-33.597656zm216.59375 281.015624c-58.5625.03125-114.785156-22.957031-156.554687-64h12.394531c10.011719.023438 19.972656 1.429688 29.597656 4.175782l5.953125 1.671875c23.945312 6.886719 49.417969 6.351562 73.054688-1.535157 8.699218-2.914062 17.734374-4.691406 26.890624-5.289062l32.710938-2.238281c44.058594-2.863281 88.289062-1.667969 132.128906 3.574219-41.734375 40.820312-97.800781 63.667968-156.175781 63.640624zm209.175781-144h-265.015625c-9.0625.027344-17.804687-3.351562-24.488281-9.472656-20.089844-18.511718-51.023438-18.511718-71.113281 0-.3125.304688-.601563.632813-.863281.976563-6.636719 8.703125-9.128907 19.871093-6.824219 30.570312 2.5 11.085938 9.722656 20.523438 19.765625 25.839844l1.664062.910156c5.589844 2.828125 11.792969 4.234375 18.058594 4.089844 1.910156-.003906 3.820312-.101563 5.71875-.296875 7.105469-.652344 13.746094-3.828125 18.71875-8.945312 4.9375-5.023438 8.015625-11.582032 8.722656-18.589844.167969-1.605469-.152344-3.222656-.921875-4.640625-4.273437-7.753907-12.464843-12.535157-21.320312-12.441407h-7.199219c-4.417969 0-8 3.582032-8 8 0 4.417969 3.582031 8 8 8h7.199219c2.117187-.007812 4.164062.765626 5.746093 2.175782-.699218 2.378906-1.976562 4.550781-3.714843 6.320312-2.324219 2.394532-5.425781 3.878906-8.75 4.183594-4.96875.789062-10.058594.113281-14.648438-1.941406l-1.648437-.90625c-5.957032-3.101563-10.253906-8.65625-11.757813-15.199219-1.300781-5.914063.003907-12.101563 3.574219-16.992187 13.96875-12.21875 34.882812-12.003907 48.601562.496093 9.664063 8.917969 22.328126 13.867188 35.480469 13.863281h258.183594c-8.574219 17.957032-19.496094 34.695313-32.480469 49.777344l-.722656-.105468c-48.441406-6.453126-97.402344-8.082032-146.167969-4.871094l-32.703125 2.238281c-10.511718.699219-20.886718 2.742187-30.878906 6.082031-20.589844 6.867188-42.777344 7.328125-63.632812 1.320313l-5.96875-1.671875c-11.042969-3.152344-22.46875-4.757813-33.949219-4.769532h-27.242188c-14.269531-16.929687-25.953125-35.878906-34.671875-56.230468 6.429688 1.125 12.664063 3.160156 18.519532 6.039062 1.105468.539063 2.316406.8125 3.546874.800782 3.707032-.003907 6.929688-2.558594 7.777344-6.171876.847656-3.613281-.898437-7.335937-4.21875-8.988281-9.996094-4.945312-20.871094-7.863281-32-8.585937-7.65625-22.839844-11.554687-46.773438-11.550781-70.863282 0-2.511718.101563-4.992187.191406-7.480468 13.777344.890625 27.414063 3.339844 40.640625 7.304687 18.707032 5.59375 38.128906 8.4375 57.65625 8.441407 17.871094 0 35.664063-2.390626 52.902344-7.105469l12.550781-3.441407c14.027344-3.820312 28.460938-5.957031 42.992188-6.359374l240.863281.640624c.089844 2.671876.203125 5.335938.203125 8 .011719 27.351563-5.015625 54.46875-14.824219 80zm0 0"/><path d="m112.015625 224.039062c13.253906 0 24-10.746093 24-24 0-13.253906-10.746094-24-24-24-13.257813 0-24 10.746094-24 24 0 13.253907 10.742187 24 24 24zm0-32c4.417969 0 8 3.582032 8 8 0 4.417969-3.582031 8-8 8-4.421875 0-8-3.582031-8-8 0-4.417968 3.578125-8 8-8zm0 0"/><path d="m50.679688 270.703125h16v16h-16zm0 0"/><path d="m248.015625 417.375h16v16h-16zm0 0"/><path d="m304.015625 417.375h16v16h-16zm0 0"/><path d="m304.015625 80.039062h16v16h-16zm0 0"/></svg>