<?xml version="1.0" encoding="UTF-8"?>
<svg viewBox="0 0 512 512" version="1.1" xmlns="http://www.w3.org/2000/svg" xmlns:xlink="http://www.w3.org/1999/xlink">
    <!-- Generator: Sketch 51.3 (57544) - http://www.bohemiancoding.com/sketch -->
    <title>Icon 512</title>
    <desc>Created with Sketch.</desc>
    <defs></defs>
    <g>
        <g id="dog" transform="translate(5.000000, 34.000000)" fill="#000000" fill-rule="nonzero">
            <path d="M87.4423098,187.123677 C82.2855161,256.956824 -26.5333547,263.047534 6.09073222,131.624702 C38.7679656,0.149363509 106.279867,-6.67643282 145.376782,2.98469429 C163.373466,7.39520884 177.265236,18.7890381 187,29.7628183 C177.528338,35.2759615 168.845981,41.9442395 161.00555,49.7676522 C153.32298,57.4335465 146.640196,65.9395389 141.11506,75.180617 C95.6510834,80.7457412 91.6519373,130.312049 87.4423098,187.123677 Z M357.745161,2.98485358 C396.808957,-6.67574631 464.316771,0.149677526 496.914273,131.565338 C529.51125,263.086005 420.784034,256.943124 415.631083,187.113787 C411.425021,130.042743 407.429263,80.2696527 361.320839,75.1243332 C355.852959,65.9362627 349.280988,57.4307345 341.6044,49.7652585 C333.875762,42.0472792 325.305911,35.4318684 316,29.9715294 C325.673942,18.9458447 339.60652,7.44763071 357.745161,2.98485358 Z M339.006091,76.1167902 C352.299238,94.2793253 360.128534,116.653463 360.12906,140.870176 L360.12906,206.307948 C387.450944,231.472272 405,266.060056 405,304.227703 C405,378.246614 340.793573,438.735753 259.773678,443 L259.773678,301.279581 C279.004081,298.594684 293.400612,287.644518 293.400612,274.535906 C293.400612,259.426783 274.222751,247.160491 250.578813,247.160491 C226.934875,247.160491 207.757014,259.426783 207.757014,274.535906 C207.757014,287.645045 222.153545,298.594684 241.383948,301.279581 L241.383948,443 C160.364054,438.735753 96,378.246614 96,304.227703 C96,266.006885 112.655841,231.4191 140.503146,206.307948 L140.503146,140.870176 C140.503146,116.600818 148.384458,94.1740353 161.730148,75.9588551 C171.082639,63.218758 183.114251,52.531817 197.037903,44.7929977 C212.800529,36.0012778 230.98009,31 250.315577,31 C269.966317,31 288.356047,36.1592129 304.328315,45.2141579 C317.989257,52.9529773 329.811226,63.5346282 339.006091,76.1167902 Z M155.266946,374.087657 C161.256744,374.087657 166.143158,369.191669 166.143158,363.190662 C166.143158,357.189129 161.256744,352.293141 155.266946,352.293141 C149.277148,352.293141 144.390735,357.189129 144.390735,363.190662 C144.390735,369.191669 149.277674,374.087657 155.266946,374.087657 Z M157.053377,335.130335 C163.043175,335.130335 167.877046,330.234347 167.929589,324.23334 C167.929589,318.231807 163.043175,313.335819 157.053377,313.335819 C151.063579,313.335819 146.177165,318.231807 146.177165,324.23334 C146.177165,330.234347 151.063579,335.130335 157.053377,335.130335 Z M168.875346,178.721952 C168.875346,187.461027 175.915985,194.515461 184.637971,194.515461 C193.359957,194.515461 200.400597,187.461027 200.400597,178.721952 C200.400597,169.982878 193.359957,162.928444 184.637971,162.928444 C175.915985,162.928444 168.875346,169.982878 168.875346,178.721952 Z M189.734554,356.820087 C195.724351,356.820087 200.558223,351.924099 200.610765,345.922566 C200.610765,339.921559 195.723826,335.025571 189.734554,335.025571 C183.744756,335.025571 178.858342,339.921559 178.858342,345.922566 C178.858342,351.924099 183.744756,356.820087 189.734554,356.820087 Z M311.841833,356.820087 C317.832156,356.820087 322.718045,351.924099 322.718045,345.922566 C322.718045,339.921559 317.831631,335.025571 311.841833,335.025571 C305.852561,335.025571 300.966147,339.921559 300.966147,345.922566 C300.966147,351.924099 305.852561,356.820087 311.841833,356.820087 Z M316.518604,194.515461 C325.240065,194.515461 332.281229,187.461027 332.281229,178.721952 C332.281229,169.982878 325.24059,162.928444 316.518604,162.928444 C307.796618,162.928444 300.755979,169.982878 300.755979,178.721952 C300.755979,187.461027 307.796618,194.515461 316.518604,194.515461 Z M344.52301,313.387938 C338.533737,313.387938 333.646798,318.23128 333.646798,324.285459 C333.646798,330.286992 338.533737,335.18298 344.52301,335.18298 C350.512807,335.18298 355.399221,330.286992 355.399221,324.285459 C355.399221,318.283925 350.512807,313.387938 344.52301,313.387938 Z M346.309966,374.087657 C352.299238,374.087657 357.13311,369.191669 357.186178,363.190662 C357.186178,357.189129 352.299238,352.293141 346.309966,352.293141 C340.320168,352.293141 335.433754,357.189129 335.433754,363.190662 C335.433754,369.191669 340.320168,374.087657 346.309966,374.087657 Z" id="Combined-Shape"></path>
        </g>
    </g>
</svg>