<?xml version="1.0" encoding="UTF-8"?>
<svg viewBox="0 0 512 512" version="1.1" xmlns="http://www.w3.org/2000/svg" xmlns:xlink="http://www.w3.org/1999/xlink">
    <!-- Generator: Sketch 51.3 (57544) - http://www.bohemiancoding.com/sketch -->
    <title>Icon 512</title>
    <desc>Created with Sketch.</desc>
    <defs></defs>
    <g>
        <g id="elephant" transform="translate(4.000000, 44.000000)" fill="#000000" fill-rule="nonzero">
            <path d="M453.416202,121.822087 L336.918992,121.822087 C332.786084,155.508949 315.966306,186.361826 289.346216,208.217654 C286.810888,210.300463 283.748716,211.312844 280.707005,211.312844 C276.761646,211.312844 272.848682,209.609039 270.151379,206.314104 C265.375688,200.482241 266.224775,191.876146 272.050744,187.092516 C296.58051,166.952443 310.650131,137.205845 310.650131,105.480578 C310.650131,47.3190126 263.394483,0 205.310411,0 C150.967098,0 106.110378,41.4171535 100.553799,94.3802349 C93.8139525,98.2846467 87.5515051,102.929992 81.9182008,108.306027 C79.8381066,110.291524 77.8927071,112.341895 76.0444923,114.436654 C52.4814582,141.154644 47.3033877,176.094606 47.3033877,201.574862 C47.3033877,212.492533 47.5932369,223.420447 47.8745611,233.989845 C48.7151237,265.691211 49.7619908,305.146769 39.308665,315.897132 C38.4987923,316.726841 36.0401892,319.256941 27.2799237,319.256941 C12.2128808,319.256941 0,331.485756 0,346.572458 C0,361.65916 12.2128808,373.887976 27.2799237,373.887976 C48.3707147,373.887976 65.5690016,367.200796 78.3956807,354.010815 C95.5257678,336.397428 101.077232,311.063993 102.517953,282.278559 C105.750624,282.374163 109.187895,282.433916 112.812714,282.433916 C140.021028,282.433916 176.78243,279.156054 205.910569,264.525179 C205.910569,264.525179 203.92084,277.156899 203.92084,280.728403 L203.92084,389.430505 C203.92084,408.85696 222.246128,423.998293 241.674549,423.998293 L242.192867,423.998293 C261.622993,423.998293 277.235634,408.85696 277.235634,389.430505 L277.235634,333.517348 L406.815272,333.517348 L406.815272,389.87609 C406.815272,409.054997 422.910427,424 442.067753,424 L442.603122,424 C461.758743,424 476.720076,409.054997 476.720076,389.87609 L476.720076,327.598417 C493.770029,319.009394 504,301.950853 504,282.300753 L504,173.038682 C503.998295,144.751757 481.664562,121.822087 453.416202,121.822087 Z M100.581079,200.781005 C100.581079,193.665312 106.338848,187.896617 113.445268,187.896617 C120.551688,187.896617 126.311162,193.665312 126.311162,200.781005 C126.311162,207.893283 120.551688,213.661979 113.445268,213.661979 C106.338848,213.661979 100.581079,207.893283 100.581079,200.781005 Z" id="Shape"></path>
        </g>
    </g>
</svg>