<?xml version="1.0" encoding="UTF-8"?>
<svg viewBox="0 0 512 512" version="1.1" xmlns="http://www.w3.org/2000/svg" xmlns:xlink="http://www.w3.org/1999/xlink">
    <!-- Generator: Sketch 51.3 (57544) - http://www.bohemiancoding.com/sketch -->
    <title>Icon 512</title>
    <desc>Created with Sketch.</desc>
    <defs></defs>
    <g id="Icon-512" stroke="none" stroke-width="1" fill="none" fill-rule="evenodd">
        <g id="ghost" transform="translate(116.000000, 0.000000)" fill="#000000" fill-rule="nonzero">
            <path d="M80,512 C57.945312,512 40,494.054688 40,472 L40,470.296875 C36.828125,471.414062 33.460938,472 30,472 C13.457031,472 0,458.542969 0,442 L0,140 C0,62.601562 62.644531,0 140,0 C217.195312,0 280,62.804688 280,140 L280,482 C280,498.574219 266.574219,512 250,512 C234.972656,512 222.492188,500.890625 220.332031,486.457031 C214.238281,490.070312 207.269531,492 200,492 C182.585938,492 167.738281,480.808594 162.261719,465.238281 C155.730469,469.636719 148.046875,472 140,472 C132.71875,472 125.886719,470.035156 120,466.617188 L120,472 C120,494.101562 102.097656,512 80,512 Z M230,372 C224.480469,372 220,376.480469 220,382 C220,387.519531 224.480469,392 230,392 C235.519531,392 240,387.519531 240,382 C240,376.480469 235.519531,372 230,372 Z M80,200 C102.054688,200 120,182.054688 120,160 C120,137.945312 102.054688,120 80,120 C57.945312,120 40,137.945312 40,160 C40,182.054688 57.945312,200 80,200 Z M80,140 C91.027344,140 100,148.972656 100,160 C100,171.027344 91.027344,180 80,180 C68.972656,180 60,171.027344 60,160 C60,148.972656 68.972656,140 80,140 Z M200,200 C222.054688,200 240,182.054688 240,160 C240,137.945312 222.054688,120 200,120 C177.945312,120 160,137.945312 160,160 C160,182.054688 177.945312,200 200,200 Z M200,140 C211.027344,140 220,148.972656 220,160 C220,171.027344 211.027344,180 200,180 C188.972656,180 180,171.027344 180,160 C180,148.972656 188.972656,140 200,140 Z M70,296 C70,301.523438 74.476562,306 80,306 L200,306 C205.523438,306 210,301.523438 210,296 C210,257.375 178.753906,226 140,226 C101.375,226 70,257.246094 70,296 Z M140,246 C164.488281,246 184.453125,263.460938 189.007812,286 L90.992188,286 C95.550781,263.433594 115.546875,246 140,246 Z" id="Combined-Shape"></path>
        </g>
    </g>
</svg>