<?xml version="1.0" encoding="UTF-8"?>
<svg viewBox="0 0 512 512" version="1.1" xmlns="http://www.w3.org/2000/svg" xmlns:xlink="http://www.w3.org/1999/xlink">
    <!-- Generator: Sketch 51.3 (57544) - http://www.bohemiancoding.com/sketch -->
    <title>Icon 512</title>
    <desc>Created with Sketch.</desc>
    <defs></defs>
    <g>
        <g id="igloo" fill="#000000" fill-rule="nonzero">
            <path d="M497,392 L481,392 L481,315 C481,257.103 433.897,210 376,210 L360.314,210 C327.352,158.53 272.467,125.326 211,120.599 L211,90 L286,90 C294.284,90 301,83.284 301,75 L301,15 C301,6.716 294.284,0 286,0 L196,0 C187.716,0 181,6.716 181,15 C181,36.648 181,98.883 181,120.566 C80.482,128.17 0,211.992 0,315 L0,407 C0,415.284 6.716,422 15,422 C184.524,422 316.634,422 497,422 C505.284,422 512,415.284 512,407 C512,398.716 505.284,392 497,392 Z M211,30 L271,30 L271,60 L211,60 L211,30 Z M211,150.707 C254.832,154.742 295.347,176.282 323.265,210 C309.487,210 224.809,210 211,210 L211,150.707 Z M181,150.681 L181,210 L68.043,210 C95.52,176.976 135.663,154.737 181,150.681 Z M48.161,240 L135,240 L135,300 L30.693,300 C32.646,278.564 38.729,258.296 48.161,240 Z M75,392 L30,392 L30,330 L75,330 L75,392 Z M196,392 L105,392 L105,330 L196,330 L196,392 Z M165,300 L165,239.9 L227.596,239.9 C211.493,255.664 200.431,276.652 197.076,300 L165,300 Z M271,392 L226,392 L226,315 C226,273.645 259.645,240 301,240 L302.596,240 C283.113,259.073 271,285.646 271,315 L271,392 Z M391,392 C380.508,392 371.492,392 361,392 L361,315 C361,306.729 367.729,300 376,300 C384.271,300 391,306.729 391,315 L391,392 Z M451,392 L421,392 L421,315 C421,290.187 400.813,270 376,270 C351.187,270 331,290.187 331,315 L331,392 L301,392 L301,315 C301,273.645 334.645,240 376,240 C417.355,240 451,273.645 451,315 L451,392 Z" id="Shape"></path>
            <path d="M135,452 L45,452 C36.716,452 30,458.716 30,467 C30,475.284 36.716,482 45,482 L135,482 C143.284,482 150,475.284 150,467 C150,458.716 143.284,452 135,452 Z" id="Shape"></path>
            <path d="M376,482 L286,482 C277.716,482 271,488.716 271,497 C271,505.284 277.716,512 286,512 L376,512 C384.284,512 391,505.284 391,497 C391,488.716 384.284,482 376,482 Z" id="Shape"></path>
            <path d="M497,452 L436,452 C427.716,452 421,458.716 421,467 C421,475.284 427.716,482 436,482 L497,482 C505.284,482 512,475.284 512,467 C512,458.716 505.284,452 497,452 Z" id="Shape"></path>
            <path d="M226,452 L196,452 C187.716,452 181,458.716 181,467 C181,475.284 187.716,482 196,482 L226,482 C234.284,482 241,475.284 241,467 C241,458.716 234.284,452 226,452 Z" id="Shape"></path>
            <circle id="Oval" cx="15" cy="15" r="15"></circle>
            <circle id="Oval" cx="105" cy="45" r="15"></circle>
            <circle id="Oval" cx="45" cy="105" r="15"></circle>
            <circle id="Oval" cx="466" cy="165" r="15"></circle>
            <circle id="Oval" cx="376" cy="135" r="15"></circle>
            <circle id="Oval" cx="346" cy="45" r="15"></circle>
            <path d="M467,0 C442.187,0 422,20.187 422,45 C422,69.813 442.187,90 467,90 C491.813,90 512,69.813 512,45 C512,20.187 491.813,0 467,0 Z M467,60 C458.729,60 452,53.271 452,45 C452,36.729 458.729,30 467,30 C475.271,30 482,36.729 482,45 C482,53.271 475.271,60 467,60 Z" id="Shape"></path>
        </g>
    </g>
</svg>