<?xml version="1.0" encoding="UTF-8"?>
<svg viewBox="0 0 512 512" version="1.1" xmlns="http://www.w3.org/2000/svg" xmlns:xlink="http://www.w3.org/1999/xlink">
    <!-- Generator: Sketch 51.3 (57544) - http://www.bohemiancoding.com/sketch -->
    <title>Icon 512</title>
    <desc>Created with Sketch.</desc>
    <defs></defs>
    <g>
        <g id="jellyfish" transform="translate(85.000000, -1.000000)" fill="#000000" fill-rule="nonzero">
            <path d="M311.59,356.518 L311.59,369.16 C311.59,378.047 304.36,385.278 295.472,385.278 C286.585,385.278 279.355,378.048 279.355,369.16 L279.355,249.33 L319.724,249.33 L319.724,148.723 C319.725,66.585 253.139,0 171.001,0 C88.863,0 22.278,66.585 22.278,148.723 L22.278,249.33 L62.647,249.33 L62.647,369.16 C62.647,378.047 55.417,385.278 46.53,385.278 C37.642,385.278 30.412,378.048 30.412,369.16 L30.412,356.519 L0.412,356.519 L0.412,369.16 C0.412,394.589 21.1,415.278 46.53,415.278 C71.959,415.278 92.647,394.59 92.647,369.16 L92.647,249.33 L124.883,249.33 L124.883,465.883 C124.883,474.77 117.653,482.001 108.765,482.001 C99.877,482.001 92.647,474.771 92.647,465.883 L92.647,453.242 L62.647,453.242 L62.647,465.883 C62.647,491.312 83.335,512.001 108.765,512.001 C134.195,512.001 154.883,491.313 154.883,465.883 L154.883,249.329 L187.117,249.329 L187.117,465.882 C187.117,491.311 207.805,512 233.235,512 C258.665,512 279.353,491.312 279.353,465.882 L279.353,453.241 L249.353,453.241 L249.353,465.882 C249.353,474.769 242.123,482 233.235,482 C224.347,482 217.117,474.77 217.117,465.882 L217.117,249.329 L249.353,249.329 L249.353,369.159 C249.353,394.588 270.041,415.277 295.47,415.277 C320.9,415.277 341.588,394.589 341.588,369.159 L341.588,356.518 L311.59,356.518 Z" id="Shape"></path>
        </g>
    </g>
</svg>