<?xml version="1.0" encoding="UTF-8"?>
<svg viewBox="0 0 512 512" version="1.1" xmlns="http://www.w3.org/2000/svg" xmlns:xlink="http://www.w3.org/1999/xlink">
    <!-- Generator: Sketch 51.3 (57544) - http://www.bohemiancoding.com/sketch -->
    <title>Icon 512</title>
    <desc>Created with Sketch.</desc>
    <defs></defs>
    <g>
        <g id="mitten" transform="translate(34.000000, 11.000000)" fill="#000000" fill-rule="nonzero">
            <path d="M140,478.364086 C140,484.791119 145.236656,490 151.69796,490 L372.30204,490 C378.763344,490 384,484.791119 384,478.364086 L384,458 L140,458 L140,478.364086 Z" id="Shape"></path>
            <path d="M261.090867,0 C178.981321,0 112.181733,66.8194907 112.181733,148.9535 L112.181733,190.601401 L104.238043,182.653693 C92.7044319,171.118296 77.3697277,164.764751 61.0616535,164.764751 C44.7502797,164.764751 29.4172253,171.118296 17.8869136,182.653693 C6.35330238,194.189091 0.0016497799,209.530014 0,225.842947 C0,242.157531 6.3516526,257.495154 17.8836141,269.032201 L112.183383,363.358416 L112.183383,423.558668 C112.183383,429.253755 116.271538,433.986733 121.669617,435 L400.513766,435 C405.913495,433.986733 410,429.253755 410,423.558668 L410,148.9535 C409.99835,66.8194907 343.198762,0 261.090867,0 Z M268.056237,262.137367 C266.436154,263.153934 264.594999,263.662218 262.755495,263.662218 C260.91599,263.662218 259.076485,263.155585 257.454752,262.139017 C249.052423,256.873001 175.376552,209.455752 175.376552,166.372115 C175.376552,139.46774 197.213039,117.58019 224.056608,117.58019 C239.815305,117.58019 253.849983,125.126881 262.753845,136.800901 C271.656057,125.126881 285.689085,117.58019 301.447782,117.58019 C328.291351,117.58019 350.127838,139.46774 350.127838,166.372115 C350.129488,209.452451 276.456917,256.873001 268.056237,262.137367 Z" id="Shape"></path>
        </g>
    </g>
</svg>