<?xml version="1.0" encoding="UTF-8"?>
<svg viewBox="0 0 512 512" version="1.1" xmlns="http://www.w3.org/2000/svg" xmlns:xlink="http://www.w3.org/1999/xlink">
    <!-- Generator: Sketch 51.3 (57544) - http://www.bohemiancoding.com/sketch -->
    <title>Icon 512</title>
    <desc>Created with Sketch.</desc>
    <defs></defs>
    <g id="Icon-512" stroke="none" stroke-width="1" fill="none" fill-rule="evenodd">
        <g id="net" transform="translate(56.000000, 7.000000)" fill="#000000" fill-rule="nonzero">
            <path d="M376.089844,240 L251.128906,240 C274.726562,213.726562 288.089844,179.753906 288.089844,144 C288.089844,64.601562 223.488281,0 144.089844,0 C64.6875,0 0.0898438,64.601562 0.0898438,144 C0.0898438,179.753906 13.449219,213.726562 37.046875,240 L24.089844,240 C10.855469,240 0.0898438,250.769531 0.0898438,264 L0.0898438,280 C0.0898438,293.230469 10.855469,304 24.089844,304 L34.207031,304 C53.984375,365.214844 64.089844,428.816406 64.089844,493.191406 L64.089844,496 L80.089844,496 L80.089844,493.191406 C80.089844,492.550781 80.046875,491.921875 80.046875,491.28125 L84.945312,496.175781 L99.398438,496.175781 L128.175781,467.398438 L156.953125,496.175781 L171.40625,496.175781 L200.183594,467.398438 L228.960938,496.175781 L243.414062,496.175781 L272.191406,467.398438 L300.96875,496.175781 L315.425781,496.175781 L320.144531,491.457031 C320.144531,492.039062 320.113281,492.617188 320.113281,493.191406 L320.113281,496 L336.113281,496 L336.113281,493.191406 C336.113281,428.816406 346.214844,365.214844 365.992188,304 L376.089844,304 C389.320312,304 400.089844,293.230469 400.089844,280 L400.089844,264 C400.089844,250.769531 389.320312,240 376.089844,240 Z M16.527344,152 L112.382812,152 C112.894531,167.359375 114.6875,181.558594 117.464844,194.296875 C89.496094,198.886719 64.886719,210.632812 47.671875,227.832031 C29.246094,206.679688 18.289062,180.160156 16.527344,152 Z M117.449219,93.703125 C114.671875,106.511719 112.847656,120.632812 112.351562,136 L16.496094,136 C18.296875,107.054688 29.695312,80.71875 47.632812,60.128906 C64.839844,77.351562 89.464844,89.105469 117.449219,93.703125 Z M144.089844,96 C182.824219,96 218.023438,82.664062 240.542969,60.128906 C258.480469,80.726562 269.878906,107.054688 271.679688,136 L128.351562,136 C128.878906,121.246094 130.761719,107.734375 133.542969,95.503906 C137.046875,95.726562 140.527344,96 144.089844,96 Z M137.769531,79.703125 C147.585938,48.28125 162.304688,27.425781 169.496094,18.550781 C192.199219,23.144531 212.648438,33.847656 229.289062,48.742188 C209.871094,68.121094 178.128906,80 144.089844,80 C141.960938,80 139.878906,79.792969 137.769531,79.703125 Z M240.503906,227.832031 C217.984375,205.320312 182.800781,192 144.089844,192 C140.503906,192 137.007812,192.273438 133.488281,192.496094 C130.734375,180.359375 128.902344,166.792969 128.375,152 L271.648438,152 C269.886719,180.160156 258.929688,206.679688 240.503906,227.832031 Z M59.695312,240 C59.414062,239.761719 59.167969,239.488281 58.894531,239.246094 C73.921875,224.265625 96.3125,213.863281 121.488281,209.902344 C124.855469,221.351562 128.792969,231.382812 132.792969,240.007812 L59.695312,240.007812 L59.695312,240 Z M150.585938,240 C146.160156,231.375 141.632812,220.777344 137.753906,208.296875 C139.863281,208.207031 141.953125,208 144.089844,208 C178.121094,208 209.863281,219.878906 229.28125,239.246094 C229.007812,239.496094 228.753906,239.761719 228.480469,240 L150.585938,240 Z M150.992188,16.351562 C142.015625,28.839844 129.785156,49.59375 121.425781,78.097656 C96.273438,74.128906 73.894531,63.726562 58.886719,48.753906 C81.542969,28.457031 111.351562,16 144.089844,16 C146.414062,16 148.695312,16.222656 150.992188,16.351562 Z M328.96875,387.976562 L308.167969,408.777344 L283.480469,384.089844 L308.167969,359.398438 L330.167969,381.398438 C329.777344,383.59375 329.34375,385.785156 328.96875,387.976562 Z M325.039062,414.535156 C324.625,417.863281 324.289062,421.199219 323.929688,424.535156 L319.488281,420.097656 L325.039062,414.535156 Z M272.175781,372.777344 L247.488281,348.089844 L272.175781,323.398438 L296.863281,348.089844 L272.175781,372.777344 Z M260.863281,384.089844 L236.175781,408.777344 L211.488281,384.089844 L236.175781,359.398438 L260.863281,384.089844 Z M175.488281,420.089844 L200.175781,395.398438 L224.863281,420.089844 L200.175781,444.777344 L175.488281,420.089844 Z M200.175781,372.777344 L175.488281,348.089844 L200.175781,323.398438 L224.863281,348.089844 L200.175781,372.777344 Z M188.863281,384.089844 L164.175781,408.777344 L139.488281,384.089844 L164.175781,359.398438 L188.863281,384.089844 Z M128.175781,372.777344 L103.488281,348.089844 L128.175781,323.398438 L152.863281,348.089844 L128.175781,372.777344 Z M80.863281,348.089844 L66.367188,362.585938 C63.640625,349.703125 60.488281,336.902344 56.953125,324.183594 L80.863281,348.089844 Z M71.167969,387.769531 C70.816406,385.6875 70.398438,383.617188 70.03125,381.542969 L92.175781,359.398438 L116.863281,384.089844 L92.175781,408.777344 L71.167969,387.769531 Z M80.863281,420.089844 L76.265625,424.679688 C75.886719,421.230469 75.535156,417.777344 75.105469,414.328125 L80.863281,420.089844 Z M128.175781,395.398438 L131.390625,398.617188 L152.863281,420.089844 L128.175781,444.777344 L103.488281,420.089844 L128.175781,395.398438 Z M268.960938,398.617188 L272.175781,395.398438 L296.863281,420.089844 L272.175781,444.777344 L247.488281,420.089844 L268.960938,398.617188 Z M319.488281,348.089844 L343.160156,324.414062 C339.664062,337.007812 336.542969,349.6875 333.839844,362.441406 L319.488281,348.089844 Z M324.777344,304 L332.863281,312.089844 L308.175781,336.777344 L283.488281,312.089844 L291.574219,304 L324.777344,304 Z M252.777344,304 L260.863281,312.089844 L236.175781,336.777344 L211.488281,312.089844 L219.574219,304 L252.777344,304 Z M180.777344,304 L188.863281,312.089844 L164.175781,336.777344 L139.488281,312.089844 L147.574219,304 L180.777344,304 Z M108.777344,304 L116.863281,312.089844 L92.175781,336.777344 L67.488281,312.089844 L75.574219,304 L108.777344,304 Z M92.777344,480.175781 L91.574219,480.175781 L79.59375,468.183594 C79.289062,460.550781 78.808594,452.945312 78.230469,445.34375 L92.175781,431.398438 L116.863281,456.089844 L92.777344,480.175781 Z M139.488281,456.089844 L164.175781,431.398438 L188.863281,456.089844 L164.777344,480.175781 L163.574219,480.175781 L139.488281,456.089844 Z M236.777344,480.175781 L235.574219,480.175781 L211.488281,456.089844 L236.175781,431.398438 L260.863281,456.089844 L236.777344,480.175781 Z M308.777344,480.175781 L307.574219,480.175781 L283.488281,456.089844 L308.175781,431.398438 L321.960938,445.183594 C321.375,452.894531 320.886719,460.625 320.585938,468.359375 L308.777344,480.175781 Z M384.089844,280 C384.089844,284.40625 380.503906,288 376.089844,288 L24.089844,288 C19.671875,288 16.089844,284.40625 16.089844,280 L16.089844,264 C16.089844,259.59375 19.671875,256 24.089844,256 L376.089844,256 C380.503906,256 384.089844,259.59375 384.089844,264 L384.089844,280 Z" id="Shape"></path>
        </g>
    </g>
</svg>