<?xml version="1.0" encoding="UTF-8"?>
<svg viewBox="0 0 512 512" version="1.1" xmlns="http://www.w3.org/2000/svg" xmlns:xlink="http://www.w3.org/1999/xlink">
    <!-- Generator: Sketch 51.3 (57544) - http://www.bohemiancoding.com/sketch -->
    <title>Icon 512</title>
    <desc>Created with Sketch.</desc>
    <defs></defs>
    <g id="Icon-512" stroke="none" stroke-width="1" fill="none" fill-rule="evenodd">
        <g id="octopus" transform="translate(43.000000, 0.000000)" fill="#000000" fill-rule="nonzero">
            <path d="M415.158,244.449 C421.691,251.056 425.37,260.161 425.251,269.428 C424.906,296.492 411.474,322.473 388.399,340.71 C368.019,356.817 341.666,366.038 313.78,366.893 C322.668,369.614 331.293,371.16 338.513,371.16 C347.632,371.16 356.193,374.724 362.618,381.194 C369.043,387.664 372.547,396.251 372.483,405.372 C372.354,424.003 356.964,439.102 338.145,439.102 C338.092,439.102 338.04,439.102 337.987,439.102 C316.671,439.006 292.262,433.024 269.498,422.623 C277.396,436.593 291.077,444.057 309.511,444.057 C318.659,444.057 327.238,447.64 333.67,454.146 C340.102,460.651 343.586,469.272 343.481,478.424 C343.267,497.033 327.699,512.067 308.858,511.998 C277.058,511.838 248.113,500.015 227.354,478.706 C221.95,473.159 217.154,467.046 212.998,460.419 C208.842,467.046 204.046,473.159 198.642,478.706 C177.725,500.176 148.548,512 116.484,512 C97.783,512 82.545,496.786 82.513,478.085 C82.481,459.471 97.965,444.205 117.028,444.054 C135.18,443.91 148.67,436.452 156.492,422.625 C133.732,433.023 109.321,439.005 88.008,439.101 C87.956,439.101 87.902,439.101 87.85,439.101 C69.029,439.103 53.64,424.003 53.512,405.371 C53.449,396.25 56.953,387.664 63.377,381.194 C69.803,374.724 78.364,371.16 87.482,371.16 C94.702,371.16 103.327,369.614 112.215,366.893 C84.33,366.038 57.976,356.817 37.596,340.71 C14.521,322.473 1.089,296.493 0.744,269.429 C0.626,260.161 4.304,251.056 10.837,244.449 C17.264,237.949 25.742,234.415 34.753,234.387 C53.461,234.411 68.68,249.651 68.68,268.358 C68.68,284.691 91.02,299.017 116.485,299.017 L117.182,299.014 C127.539,298.909 133.781,292.03 136.173,285.629 C138.552,279.258 138.351,270.016 130.648,263.188 C98.849,235 80.612,192.87 80.612,147.601 C80.612,66.213 140.001,0 212.999,0 C285.997,0 345.386,66.213 345.385,147.601 C345.385,192.871 327.147,235 295.349,263.188 C287.645,270.016 287.444,279.258 289.824,285.629 C292.215,292.03 298.458,298.908 308.806,299.014 L309.511,299.017 C334.978,299.017 357.316,284.69 357.316,268.358 C357.316,249.65 372.536,234.41 391.243,234.387 C391.257,234.387 391.273,234.387 391.287,234.387 C400.266,234.387 408.742,237.959 415.158,244.449 Z M180.193,203.487 C173.521,203.487 168.093,208.915 168.093,215.587 C168.093,222.259 173.521,227.688 180.193,227.688 C186.866,227.688 192.294,222.259 192.294,215.587 C192.294,208.915 186.867,203.487 180.193,203.487 Z M245.805,203.487 C239.133,203.487 233.704,208.915 233.704,215.587 C233.704,222.259 239.132,227.688 245.805,227.688 C252.477,227.688 257.905,222.26 257.905,215.587 C257.905,208.915 252.477,203.487 245.805,203.487 Z" id="Combined-Shape"></path>
        </g>
    </g>
</svg>