<?xml version="1.0" encoding="UTF-8"?>
<svg viewBox="0 0 512 512" version="1.1" xmlns="http://www.w3.org/2000/svg" xmlns:xlink="http://www.w3.org/1999/xlink">
    <!-- Generator: Sketch 51.3 (57544) - http://www.bohemiancoding.com/sketch -->
    <title>Icon 512</title>
    <desc>Created with Sketch.</desc>
    <defs></defs>
    <g>
        <g id="pizza" transform="translate(210.344190, 290.565920) rotate(44.000000) translate(-210.344190, -290.565920) translate(-8.155810, 22.565920)" fill="#000000" fill-rule="nonzero">
            <path d="M164.841817,323.623273 C164.841817,345.681689 147.137983,363.621655 125.374903,363.621655 C118.853294,363.621655 112.697381,362.003105 107.272864,359.149019 L87.2691972,313.240662 C91.7916591,296.202636 107.159092,283.624891 125.374903,283.624891 C147.137983,283.624891 164.841817,301.568976 164.841817,323.623273 Z M386.669615,164.636372 L386.931566,164.771057 C389.858054,166.285249 397.159946,170.223781 409.680398,177.986567 L325.91738,373.374502 C316.556714,359.538622 300.692289,350.416736 282.732254,350.416736 C254.032216,350.416736 230.685807,373.701013 230.685807,402.315573 C230.685807,430.934213 254.032216,454.214408 282.732254,454.214408 C285.752881,454.214408 288.708018,453.945037 291.585389,453.45119 L270.363242,502.950175 C261.751594,523.042811 242.788775,535.605301 220.874913,535.735905 L220.531102,535.735905 C198.764588,535.735905 179.805863,523.42238 170.997751,503.537894 L122.958339,395.062959 C123.760565,395.091529 124.562791,395.12418 125.373203,395.12418 C164.629059,395.12418 196.570746,363.277166 196.570746,324.128563 C196.570746,284.984041 164.633153,253.137029 125.373203,253.137029 C103.69264,253.137029 84.2550363,262.862959 71.186123,278.155892 L29.0897324,183.096456 C40.5623795,175.831598 50.0499283,170.587024 55.6655091,167.623942 L56.5086643,167.170909 C105.497649,140.768458 160.838952,126.161196 216.55681,124.928619 C275.53678,123.622577 334.373495,137.356423 386.669615,164.636372 Z M256.351219,187.871188 C275.401537,187.871188 290.897324,203.366976 290.897324,222.413198 C290.897324,241.463516 275.401537,256.959303 256.351219,256.959303 C237.304997,256.959303 221.80921,241.463516 221.80921,222.413198 C221.80921,203.366976 237.304997,187.871188 256.351219,187.871188 Z M256.201501,288.040996 C292.579986,288.040996 322.172295,258.528533 322.172295,222.257303 C322.172295,185.981992 292.579986,156.47361 256.201501,156.47361 C219.827108,156.47361 190.230705,185.981992 190.230705,222.257303 C190.230705,258.528533 219.827108,288.040996 256.201501,288.040996 Z M404.244754,46.1254663 C432.172786,61.3058993 443.83567,94.8093792 431.372391,124.055783 L420.897848,148.643576 C409.757671,141.805211 403.023745,138.162727 400.152944,136.671316 L400.018184,136.601662 C343.157544,106.757055 279.2077,91.7487088 215.057758,93.1581741 C154.517756,94.5061798 94.3820339,110.477388 41.1517518,139.346841 L40.5473727,139.670527 C35.1651322,142.53043 26.4751407,147.352932 15.9107569,153.933167 L5.21978101,129.644476 C-7.36192276,101.057735 3.48014872,67.6566869 30.440358,51.9518028 C86.2065819,19.4603519 149.833818,1.52654496 214.432961,0.0924963489 C280.506298,-1.37023413 346.142687,14.5395146 404.244754,46.1254663 Z M282.412818,381.802738 C293.775574,381.802738 303.018046,391.046128 303.018046,402.405919 C303.018046,413.769803 293.775574,423.013192 282.412818,423.013192 C271.054156,423.013192 261.807592,413.769803 261.807592,402.405919 C261.807592,391.046128 271.054156,381.802738 282.412818,381.802738 Z" id="Combined-Shape"></path>
        </g>
    </g>
</svg>