<?xml version="1.0" encoding="UTF-8"?>
<svg viewBox="0 0 512 512" version="1.1" xmlns="http://www.w3.org/2000/svg" xmlns:xlink="http://www.w3.org/1999/xlink">
    <!-- Generator: Sketch 51.3 (57544) - http://www.bohemiancoding.com/sketch -->
    <title>Icon 512</title>
    <desc>Created with Sketch.</desc>
    <defs></defs>
    <g id="Icon-512" stroke="none" stroke-width="1" fill="none" fill-rule="evenodd">
        <path d="M319.875,64.1875 L319.875,170.746094 L277.253906,170.746094 L277.253906,64.1875 C277.253906,28.875 305.878906,0.25 341.191406,0.25 C376.5,0.25 405.128906,28.875 405.128906,64.1875 L362.5,64.1875 C362.5,52.414062 352.960938,42.871094 341.191406,42.871094 C329.417969,42.871094 319.875,52.414062 319.875,64.1875 Z M170.691406,85.5 C158.917969,85.5 149.378906,95.039062 149.378906,106.808594 L106.753906,106.808594 C106.753906,71.5 135.375,42.871094 170.691406,42.871094 C206.003906,42.871094 234.628906,71.5 234.628906,106.808594 L234.628906,149.4375 L192,149.4375 L192,106.808594 C192,95.039062 182.460938,85.5 170.691406,85.5 Z M383.8125,128.125 C383.8125,139.894531 374.273438,149.4375 362.5,149.4375 C350.730469,149.4375 341.191406,139.894531 341.191406,128.125 C341.191406,116.351562 350.730469,106.808594 362.5,106.808594 C374.273438,106.808594 383.8125,116.351562 383.8125,128.125 Z M255.9375,21.5625 C255.9375,33.332031 246.398438,42.871094 234.628906,42.871094 C222.855469,42.871094 213.316406,33.332031 213.316406,21.5625 C213.316406,9.792969 222.855469,0.25 234.628906,0.25 C246.398438,0.25 255.9375,9.792969 255.9375,21.5625 Z M149.378906,192.0625 C149.378906,203.832031 139.835938,213.375 128.0625,213.375 C116.292969,213.375 106.753906,203.832031 106.753906,192.0625 C106.753906,180.289062 116.292969,170.746094 128.0625,170.746094 C139.835938,170.746094 149.378906,180.289062 149.378906,192.0625 Z M447.75,234.683594 C447.75,246.457031 438.210938,256 426.4375,256 C414.667969,256 405.128906,246.457031 405.128906,234.683594 C405.128906,222.914062 414.667969,213.375 426.4375,213.375 C438.210938,213.375 447.75,222.914062 447.75,234.683594 Z M319.511719,209.558594 C359.324219,428.417969 510.347656,511.34375 511.6875,511.75 L0.1875,511.75 C5.667969,510.105469 152.871094,426.6875 192.363281,209.558594 C194.207031,199.433594 203.019531,192.070312 213.316406,192.0625 L298.5625,192.0625 C308.855469,192.070312 317.671875,199.433594 319.511719,209.558594 Z" id="Combined-Shape" fill="#000000" fill-rule="nonzero"></path>
    </g>
</svg>