<?xml version="1.0" encoding="iso-8859-1"?>
<!-- Generator: Adobe Illustrator 19.0.0, SVG Export Plug-In . SVG Version: 6.00 Build 0)  -->
<svg xmlns="http://www.w3.org/2000/svg" xmlns:xlink="http://www.w3.org/1999/xlink" version="1.1" id="Capa_1" x="0px" y="0px" viewBox="0 0 339.968 339.968" style="enable-background:new 0 0 339.968 339.968;" xml:space="preserve">
<g>
	<g>
		<path d="M324.319,305.664h-20.992V5.12c0-3.072-2.048-5.12-5.12-5.12h-256c-3.072,0-5.12,2.048-5.12,5.12v300.544H16.095    c-3.072,0-5.12,2.048-5.12,5.12v24.064c0,3.072,2.048,5.12,5.12,5.12h307.712c3.072,0,5.12-2.048,5.12-5.12v-24.064    C329.439,308.224,326.879,305.664,324.319,305.664z M47.327,10.24h245.76v295.424h-13.312V28.16c0-3.072-2.048-5.12-5.12-5.12    H65.759c-3.072,0-5.12,2.048-5.12,5.12v277.504H47.327V10.24z M175.327,211.456v-83.968h94.208v83.968H175.327z M269.535,221.696    v83.968h-94.208v-83.968H269.535z M175.327,117.248V33.28h94.208v83.968H175.327z M70.879,211.456v-83.968h94.208v83.968H70.879z     M165.087,221.696v83.968H70.879v-83.968H165.087z M70.879,117.248V33.28h94.208v83.968H70.879z M21.215,329.728v-13.824h44.544    h208.896h44.544v13.824H21.215z" fill="#333333"/>
	</g>
</g>
<g>
</g>
<g>
</g>
<g>
</g>
<g>
</g>
<g>
</g>
<g>
</g>
<g>
</g>
<g>
</g>
<g>
</g>
<g>
</g>
<g>
</g>
<g>
</g>
<g>
</g>
<g>
</g>
<g>
</g>
</svg>
