<?xml version="1.0" encoding="UTF-8"?>
<svg viewBox="0 0 512 512" version="1.1" xmlns="http://www.w3.org/2000/svg" xmlns:xlink="http://www.w3.org/1999/xlink">
    <!-- Generator: Sketch 51.3 (57544) - http://www.bohemiancoding.com/sketch -->
    <title>Icon 512</title>
    <desc>Created with Sketch.</desc>
    <defs></defs>
    <g>
        <g id="xray" transform="translate(67.000000, 9.000000)" fill="#000000" fill-rule="nonzero">
            <path d="M121.248284,411.331727 C103.127493,411.331727 88.3910022,396.591171 88.3910022,378.465381 C88.3910022,360.339592 103.127493,345.599036 121.248284,345.599036 C139.369075,345.599036 154.105566,360.339592 154.105566,378.465381 C154.105566,396.591171 139.369075,411.331727 121.248284,411.331727 Z M349.67211,0.502410049 C365.254676,0.502410049 377.929372,13.1806028 377.929372,28.7592504 L377.929372,465.24075 C377.929372,480.819397 365.254676,493.49759 349.67211,493.49759 L28.3278905,493.49759 C12.7453244,493.49759 0.070627867,480.819397 0.070627867,465.232533 L0.070627867,28.7592504 C0.070627867,13.1806028 12.7453244,0.502410049 28.3278905,0.502410049 L349.67211,0.502410049 Z M252.258482,411.331727 C234.137691,411.331727 219.4012,396.591171 219.4012,378.465381 C219.4012,360.339592 234.137691,345.599036 252.258482,345.599036 C270.379273,345.599036 285.115764,360.339592 285.115764,378.465381 C285.115764,396.591171 270.379273,411.331727 252.258482,411.331727 Z M324.199502,396.706203 C338.319919,382.581891 340.940287,360.668255 330.434171,344.596612 C320.815202,329.888923 294.028302,322.945907 279.168596,325.320501 C268.087478,327.07885 257.589576,323.553935 251.37955,315.854993 L245.506311,308.583315 L243.625232,307.778089 C238.540567,305.617127 233.151973,304.516104 227.615521,304.516104 L197.214321,304.516104 L197.214321,271.649759 L246.500244,271.649759 C251.034549,271.649759 254.714564,267.976945 254.714564,263.433173 C254.714564,258.8894 251.034549,255.216586 246.500244,255.216586 L197.214321,255.216586 L197.214321,238.783414 L262.928885,238.783414 C267.46319,238.783414 271.143205,235.1106 271.143205,230.566827 C271.143205,226.023055 267.46319,222.350241 262.928885,222.350241 L197.214321,222.350241 L197.214321,205.917068 L295.786167,205.917068 C300.320472,205.917068 304.000487,202.244254 304.000487,197.700482 C304.000487,193.15671 300.320472,189.483896 295.786167,189.483896 L197.214321,189.483896 L197.214321,173.050723 L295.786167,173.050723 C300.320472,173.050723 304.000487,169.377909 304.000487,164.834137 C304.000487,160.290364 300.320472,156.61755 295.786167,156.61755 L197.214321,156.61755 L197.214321,140.184378 L262.928885,140.184378 C267.46319,140.184378 271.143205,136.511564 271.143205,131.967791 C271.143205,127.424019 267.46319,123.751205 262.928885,123.751205 L197.214321,123.751205 L197.214321,107.318032 L246.500244,107.318032 C251.034549,107.318032 254.714564,103.645218 254.714564,99.101446 C254.714564,94.5576738 251.034549,90.8848597 246.500244,90.8848597 L197.214321,90.8848597 L197.214321,74.451687 L213.642962,74.451687 C218.177267,74.451687 221.857282,70.7788729 221.857282,66.2351007 C221.857282,61.6913285 218.177267,58.0185144 213.642962,58.0185144 L197.214321,58.0185144 L197.214321,41.5853417 C197.214321,37.0415695 193.534305,33.3687554 189,33.3687554 C184.465695,33.3687554 180.785679,37.0415695 180.785679,41.5853417 L180.785679,58.0185144 L164.357038,58.0185144 C159.822733,58.0185144 156.142718,61.6913285 156.142718,66.2351007 C156.142718,70.7788729 159.822733,74.451687 164.357038,74.451687 L180.785679,74.451687 L180.785679,90.8848597 L131.499756,90.8848597 C126.965451,90.8848597 123.285436,94.5576738 123.285436,99.101446 C123.285436,103.645218 126.965451,107.318032 131.499756,107.318032 L180.785679,107.318032 L180.785679,123.751205 L115.071115,123.751205 C110.53681,123.751205 106.856795,127.424019 106.856795,131.967791 C106.856795,136.511564 110.53681,140.184378 115.071115,140.184378 L180.785679,140.184378 L180.785679,156.61755 L82.2138331,156.61755 C77.6795282,156.61755 73.9995126,160.290364 73.9995126,164.834137 C73.9995126,169.377909 77.6795282,173.050723 82.2138331,173.050723 L180.785679,173.050723 L180.785679,189.483896 L82.2138331,189.483896 C77.6795282,189.483896 73.9995126,193.15671 73.9995126,197.700482 C73.9995126,202.244254 77.6795282,205.917068 82.2138331,205.917068 L180.785679,205.917068 L180.785679,222.350241 L115.071115,222.350241 C110.53681,222.350241 106.856795,226.023055 106.856795,230.566827 C106.856795,235.1106 110.53681,238.783414 115.071115,238.783414 L180.785679,238.783414 L180.785679,255.216586 L131.499756,255.216586 C126.965451,255.216586 123.285436,258.8894 123.285436,263.433173 C123.285436,267.976945 126.965451,271.649759 131.499756,271.649759 L180.785679,271.649759 L180.785679,304.516104 L154.105566,304.516104 C146.244462,304.516104 138.555858,306.816748 131.852972,311.171539 L123.893295,318.829398 C117.141124,325.525916 107.407154,328.434587 98.9464041,326.191459 C83.388481,322.083166 55.9690791,326.914519 45.07689,343.561323 C35.080062,358.860606 37.8811453,382.220361 51.7469183,396.065309 L116.46755,452.085995 C129.856892,465.479031 152.019129,468.617767 167.675624,459.10296 C175.372442,454.427722 181.155324,447.599739 184.399981,439.342069 C184.884625,438.093148 185.829272,437.090725 187.00392,436.515564 C188.170354,437.090725 189.098572,438.084932 189.591431,439.342069 C192.836088,447.591522 198.618969,454.427722 206.324002,459.10296 C212.509385,462.85794 219.664059,464.838137 227.02409,464.838137 C238.310566,464.838137 249.432756,460.195766 256.973502,452.595423 L324.199502,396.706203 Z" id="Combined-Shape"></path>
        </g>
    </g>
</svg>