<?xml version="1.0" encoding="UTF-8"?>
<svg viewBox="0 0 512 512" version="1.1" xmlns="http://www.w3.org/2000/svg" xmlns:xlink="http://www.w3.org/1999/xlink">
    <!-- Generator: Sketch 51.3 (57544) - http://www.bohemiancoding.com/sketch -->
    <title>Icon 512</title>
    <desc>Created with Sketch.</desc>
    <defs></defs>
    <g id="Icon-512" stroke="none" stroke-width="1" fill="none" fill-rule="evenodd">
        <g id="zebra" transform="translate(3.000000, 65.000000)" fill="#000000" fill-rule="nonzero">
            <path d="M405.394141,36.7793987 C413.806789,41.1595313 422.144345,46.0741185 430.3981,51.4992131 C431.237188,54.8409147 438.181704,83.6209112 439.261309,122.354171 C425.211207,109.220304 412.262475,99.0645795 401.048513,91.2970283 C370.334183,70.020077 346.961603,62.3221899 337.73925,59.8904761 C334.302362,37.952804 327.656043,22.0976819 320.084659,10.6477279 C349.014158,13.5812412 377.633488,22.3295328 405.394141,36.7793987 Z M213.072068,27.4672629 C222.773278,22.9815456 241.201658,15.7625994 265.808383,11.9952936 C262.779612,30.8285575 263.529459,47.6219685 265.370882,60.6469851 C260.635638,61.7866468 253.002221,64.4817781 241.919944,70.7471964 L213.072068,27.4672629 Z M190.861805,348.707102 C157.113262,362.36345 125.236615,375.261112 104.468365,382.507271 C101.723643,383.465152 98.620867,383.00907 96.1732542,381.290325 L77.8515284,368.404637 C82.6781904,365.683381 88.2416393,362.361273 94.6822673,358.313134 C111.756788,347.582679 126.786371,336.862022 127.416504,336.410294 C131.085202,333.790269 131.934085,328.691725 129.314519,325.022384 C126.693865,321.351955 121.596213,320.501835 117.928603,323.125125 C90.3507872,342.827014 55.7609796,363.823131 48.1068841,363.823131 C48.0840296,363.823131 48.0589984,363.823131 48.0361439,363.823131 C17.0192633,360.690422 1.92873463,307.505119 0.310415282,301.449782 C-0.583088542,298.106992 0.484545138,294.571537 3.09758129,292.222549 C13.5355778,282.845103 33.2329295,265.483494 56.7328419,244.938016 C62.1101895,257.392658 75.9959572,278.459528 110.269066,288.17441 C134.080236,294.923123 165.988443,307.597642 182.777826,329.644164 C188.748304,337.484645 191.043553,344.18873 191.929439,348.273878 C191.574649,348.418649 191.217683,348.56342 190.861805,348.707102 Z M254.85888,323.100089 C253.499579,316.677927 250.34674,306.594043 243.040905,295.754739 C223.485033,266.741803 189.451353,254.350294 164.342916,249.06344 C157.95888,247.719139 151.890455,246.031961 146.306328,244.049799 C142.05756,242.5444 137.391968,244.763856 135.883568,249.013368 C134.375168,253.262881 136.5975,257.929289 140.84518,259.437953 C147.112767,261.662852 153.886418,263.547049 160.980033,265.040474 C229.247643,279.416322 238.253422,320.372303 239.405944,329.186993 C228.852586,333.37555 218.032592,337.726293 207.184302,342.106425 C202.482796,325.092048 184.327582,292.197514 114.720261,272.467324 C79.5536478,262.498821 71.3390718,238.84567 69.8992356,233.442345 C75.9165104,228.194677 82.0959437,222.812033 88.3678834,217.358638 C91.2453793,223.336691 96.9002464,232.248258 107.605968,241.126082 C109.129604,242.389833 110.97538,243.005925 112.811362,243.005925 C115.156673,243.005925 117.484572,242.000149 119.098538,240.052819 C121.976034,236.582674 121.495,231.435147 118.025463,228.557148 C104.690381,217.497966 101.663786,206.910106 101.503804,206.320138 C101.478773,206.219995 101.442859,206.126384 101.413475,206.027331 C104.553254,203.30281 107.700651,200.575023 110.848048,197.849414 C117.910102,208.073715 139.307396,228.934858 198.7673,236.071078 C273.479892,245.039247 284.35539,290.502716 285.307662,311.506453 C275.755551,315.024492 265.518892,318.937657 254.85888,323.100089 Z M479.689909,246.139723 C466.205728,276.498047 447.818704,303.439564 425.037077,326.217559 C394.009313,357.242047 363.059908,372.092482 351.577132,376.91237 C347.206473,366.535679 343.131834,357.004754 339.48599,348.562331 C389.504791,322.19119 423.93897,281.051252 441.834078,226.211426 C443.232558,221.924904 440.892688,217.316186 436.606917,215.917461 C432.323323,214.520913 427.713235,216.859015 426.314755,221.145537 C409.913899,271.40168 378.515021,309.195563 332.960474,333.550798 C329.379929,325.368528 326.525287,318.942011 324.635978,314.715357 C350.015405,303.997965 366.529445,287.385246 373.779777,265.212457 C392.622804,207.587154 340.91712,133.984817 338.706759,130.880408 C336.093723,127.208891 331.001513,126.353328 327.327373,128.963556 C323.654321,131.575961 322.795644,136.672328 325.405415,140.346023 C325.899508,141.041576 374.560096,210.38787 358.253924,260.166161 C355.230594,269.395571 350.01214,277.441779 342.700863,284.294988 C347.404545,262.895036 347.627649,227.244414 324.21589,175.859494 C322.347259,171.755841 317.504273,169.94675 313.403514,171.815708 C309.30058,173.685755 307.490718,178.527413 309.360437,182.631066 C319.904,205.77371 331.747006,239.976624 328.281822,271.49638 C326.292389,289.595994 320.05854,298.551101 319.71028,299.037661 C316.372429,300.509316 303.966765,304.849174 301.260134,305.787463 C299.871448,291.365898 294.77815,272.866804 280.043499,256.145234 C262.54236,236.286601 235.85043,224.080138 200.705583,219.862193 C141.466606,212.752097 125.892867,191.323844 123.341865,187.038411 C162.004135,153.63228 198.550726,122.440163 215.010351,109.270376 C245.464575,84.9031667 262.315991,78.430933 268.505219,76.7394007 C270.272637,83.7352039 271.90837,87.9270256 272.128209,88.4756307 C273.799855,92.6565674 278.535099,94.6877124 282.718569,93.0223041 C286.90095,91.3601614 288.945888,86.6153806 287.291654,82.4290013 C287.138202,82.0404061 272.928118,45.1390951 285.057351,0 C289.275646,2.08230459 294.976222,5.79627388 300.725773,12.2891891 C315.8816,29.4037082 323.892662,57.7167373 323.892662,94.1706739 C323.892662,98.6803382 327.547212,102.33444 332.054999,102.33444 C336.562785,102.33444 340.217336,98.6803382 340.217336,94.1706739 C340.217336,88.3254174 340.02144,82.7958266 339.668827,77.5372727 C350.196065,81.0531346 369.175131,88.9284476 392.803464,105.454087 C409.501429,117.132626 424.959807,130.606106 439.17098,145.002635 C438.683416,158.32699 437.377442,172.363225 434.866707,186.613895 C434.084211,191.053895 437.048772,195.288168 441.487995,196.070801 C441.966852,196.155705 442.443533,196.195979 442.914771,196.195979 C446.801132,196.195979 450.245638,193.408325 450.943246,189.448354 C452.617069,179.948996 453.787004,170.580258 454.559706,161.454256 C468.761084,177.478096 481.498683,194.196401 492.756178,210.566384 C489.088568,222.89476 484.739675,234.770318 479.689909,246.139723 Z M498.171616,189.868516 C483.619802,169.790006 469.311769,152.872506 455.731817,138.659933 C456.301004,108.117652 452.912002,81.9555029 449.992062,65.4734035 C469.562081,80.5437156 488.604269,98.5965236 507,119.527331 C506.157647,144.196055 503.202881,167.697905 498.171616,189.868516 Z M270.987658,160.176355 C266.479872,160.176355 262.825321,163.830457 262.825321,168.340121 L262.825321,177.066643 C262.825321,187.000313 254.745696,195.081353 244.813764,195.081353 C234.881833,195.081353 226.802207,187.000313 226.802207,177.066643 L226.802207,168.340121 C226.802207,158.406451 234.881833,150.325411 244.813764,150.325411 C249.321551,150.325411 252.976101,146.671309 252.976101,142.161645 C252.976101,137.65198 249.321551,133.997879 244.813764,133.997879 C225.881496,133.997879 210.478622,149.403449 210.478622,168.339033 L210.478622,177.065554 C210.478622,196.001137 225.881496,211.406708 244.813764,211.406708 C263.747121,211.406708 279.148907,196.001137 279.148907,177.065554 L279.148907,168.339033 C279.149995,163.830457 275.496533,160.176355 270.987658,160.176355 Z M41.2004587,306.543972 C38.0138823,303.357926 32.8454906,303.357926 29.6578259,306.543972 L20.9328318,315.270493 C17.7451671,318.459805 17.7451671,323.628013 20.9328318,326.816236 C22.52612,328.409803 24.6156782,329.206586 26.7041482,329.206586 C28.7926182,329.206586 30.8821764,328.409803 32.4754646,326.816236 L41.2004587,318.089714 C44.3881234,314.900403 44.3881234,309.732195 41.2004587,306.543972 Z" id="Combined-Shape"></path>
        </g>
    </g>
</svg>