<?xml version="1.0" encoding="UTF-8"?>
<svg viewBox="0 0 512 512" version="1.1" 
    xmlns="http://www.w3.org/2000/svg" 
    xmlns:xlink="http://www.w3.org/1999/xlink">
    <!-- Generator: Sketch 51.3 (57544) - http://www.bohemiancoding.com/sketch -->
    <title>1_minus_1</title>
    <desc>Created with Sketch.</desc>
    <defs></defs>
    <g id="1_minus_1" stroke="none" stroke-width="1" fill="none" fill-rule="evenodd">
        <path d="M175.288,326.464 C175.288,335.872047 170.200051,340.576 160.024,340.576 C157.911989,340.576 156.040008,339.664009 154.408,337.84 C152.775992,336.015991 151.96,333.184019 151.96,329.344 L151.096,256.192 C151.096,231.999879 151.383997,209.248107 151.96,187.936 C145.431967,193.696029 139.096031,200.319963 132.952,207.808 C126.807969,215.296037 122.632011,220.287988 120.424,222.784 C118.215989,225.280012 115.336018,227.727988 111.784,230.128 C108.231982,232.528012 104.920015,233.728 101.848,233.728 C98.7759846,233.728 96.3280091,232.672011 94.504,230.56 C92.6799909,228.447989 91.768,225.856015 91.768,222.784 C91.768,219.711985 94.0239774,215.536026 98.536,210.256 C103.048023,204.975974 119.703856,187.072153 148.504,156.544 C152.920022,152.51198 158.487966,150.496 165.208,150.496 C168.472016,150.496 171.159989,151.45599 173.272,153.376 C175.384011,155.29601 176.44,157.503988 176.44,160 L174.424,237.472 L175.288,326.464 Z M232.6,283.264 L208.696,283.84 C206.007987,283.84 203.752009,282.88001 201.928,280.96 C200.103991,279.03999 199.192,276.304018 199.192,272.752 C199.192,269.199982 200.343988,266.272012 202.648,263.968 C204.952012,261.663988 208.215979,260.512 212.44,260.512 L284.152,260.512 C291.256036,260.896002 294.808,264.543965 294.808,271.456 C294.808,274.720016 293.704011,277.551988 291.496,279.952 C289.287989,282.352012 286.072021,283.552 281.848,283.552 L232.6,283.264 Z M396.184,326.464 C396.184,335.872047 391.096051,340.576 380.92,340.576 C378.807989,340.576 376.936008,339.664009 375.304,337.84 C373.671992,336.015991 372.856,333.184019 372.856,329.344 L371.992,256.192 C371.992,231.999879 372.279997,209.248107 372.856,187.936 C366.327967,193.696029 359.992031,200.319963 353.848,207.808 C347.703969,215.296037 343.528011,220.287988 341.32,222.784 C339.111989,225.280012 336.232018,227.727988 332.68,230.128 C329.127982,232.528012 325.816015,233.728 322.744,233.728 C319.671985,233.728 317.224009,232.672011 315.4,230.56 C313.575991,228.447989 312.664,225.856015 312.664,222.784 C312.664,219.711985 314.919977,215.536026 319.432,210.256 C323.944023,204.975974 340.599856,187.072153 369.4,156.544 C373.816022,152.51198 379.383966,150.496 386.104,150.496 C389.368016,150.496 392.055989,151.45599 394.168,153.376 C396.280011,155.29601 397.336,157.503988 397.336,160 L395.32,237.472 L396.184,326.464 Z" id="1-1" fill="#FFFFFF"></path>
    </g>
</svg>