<?xml version="1.0" encoding="UTF-8"?>
<svg viewBox="0 0 512 512" version="1.1" 
    xmlns="http://www.w3.org/2000/svg" 
    xmlns:xlink="http://www.w3.org/1999/xlink">
    <!-- Generator: Sketch 51.3 (57544) - http://www.bohemiancoding.com/sketch -->
    <title>2_plus_2</title>
    <desc>Created with Sketch.</desc>
    <defs></defs>
    <g id="2_plus_2" stroke="none" stroke-width="1" fill="none" fill-rule="evenodd">
        <path d="M137.48,340.576 L95.144,340 L89.384,340 C70.375905,340 60.872,336.352036 60.872,329.056 C60.872,323.871974 61.8319904,318.976023 63.752,314.368 C65.6720096,309.759977 67.4959914,306.304012 69.224,304 C70.9520086,301.695988 74.4079741,297.856027 79.592,292.48 C84.7760259,287.103973 88.5199885,283.072013 90.824,280.384 C93.1280115,277.695987 100.087942,270.880055 111.704,259.936 C123.320058,248.991945 132.055971,239.104044 137.912,230.272 C143.768029,221.439956 146.696,212.128049 146.696,202.336 C146.696,187.167924 140.64806,177.376022 128.552,172.96 C125.095983,171.807994 121.544018,171.232 117.896,171.232 C109.639959,171.232 101.384041,174.783964 93.128,181.888 C89.8639837,184.960015 86.4080182,186.496 82.76,186.496 C81.6079942,186.496 80.5520048,186.400001 79.592,186.208 C74.791976,185.055994 72.392,181.696028 72.392,176.128 C72.392,168.639963 77.6719472,162.400025 88.232,157.408 C99.5600566,152.031973 111.895933,149.344 125.24,149.344 C138.584067,149.344 149.527957,154.191952 158.072,163.888 C166.616043,173.584048 170.888,185.631928 170.888,200.032 C170.888,220.576103 164.552063,238.239926 151.88,253.024 C145.92797,259.936035 139.880031,266.36797 133.736,272.32 C114.343903,290.752092 101.384033,304.767952 94.856,314.368 C103.496043,314.944003 114.199936,315.232 126.968,315.232 C139.736064,315.232 155.527906,314.464008 174.344,312.928 C177.224014,313.504003 179.575991,314.79999 181.4,316.816 C183.224009,318.83201 184.136,321.087988 184.136,323.584 C184.136,330.112033 180.680035,334.623988 173.768,337.12 C166.855965,339.424012 154.760086,340.576 137.48,340.576 Z M246.632,260.224 L246.632,257.92 L246.056,237.76 C246.056,218.367903 250.855952,208.672 260.456,208.672 C264.872022,208.672 267.847992,211.455972 269.384,217.024 L268.808,260.224 L305.096,260.224 C310.664028,261.184005 313.448,263.775979 313.448,268 C313.448,271.072015 312.296012,273.999986 309.992,276.784 C307.687988,279.568014 304.904016,281.439995 301.64,282.4 L268.52,282.4 C268.327999,283.744007 268.232,285.951985 268.232,289.024 L268.232,304.864 C268.232,325.984106 263.624046,336.544 254.408,336.544 C248.45597,336.544 245.48,333.184034 245.48,326.464 C245.48,306.879902 245.767997,292.192049 246.344,282.4 L207.464,282.4 C201.127968,282.4 197.96,279.808026 197.96,274.624 C197.96,271.551985 199.255987,268.480015 201.848,265.408 C204.440013,262.335985 207.463983,260.608002 210.92,260.224 L246.632,260.224 Z M410.504,340.576 L368.168,340 L362.408,340 C343.399905,340 333.896,336.352036 333.896,329.056 C333.896,323.871974 334.85599,318.976023 336.776,314.368 C338.69601,309.759977 340.519991,306.304012 342.248,304 C343.976009,301.695988 347.431974,297.856027 352.616,292.48 C357.800026,287.103973 361.543988,283.072013 363.848,280.384 C366.152012,277.695987 373.111942,270.880055 384.728,259.936 C396.344058,248.991945 405.079971,239.104044 410.936,230.272 C416.792029,221.439956 419.72,212.128049 419.72,202.336 C419.72,187.167924 413.67206,177.376022 401.576,172.96 C398.119983,171.807994 394.568018,171.232 390.92,171.232 C382.663959,171.232 374.408041,174.783964 366.152,181.888 C362.887984,184.960015 359.432018,186.496 355.784,186.496 C354.631994,186.496 353.576005,186.400001 352.616,186.208 C347.815976,185.055994 345.416,181.696028 345.416,176.128 C345.416,168.639963 350.695947,162.400025 361.256,157.408 C372.584057,152.031973 384.919933,149.344 398.264,149.344 C411.608067,149.344 422.551957,154.191952 431.096,163.888 C439.640043,173.584048 443.912,185.631928 443.912,200.032 C443.912,220.576103 437.576063,238.239926 424.904,253.024 C418.95197,259.936035 412.904031,266.36797 406.76,272.32 C387.367903,290.752092 374.408033,304.767952 367.88,314.368 C376.520043,314.944003 387.223936,315.232 399.992,315.232 C412.760064,315.232 428.551906,314.464008 447.368,312.928 C450.248014,313.504003 452.599991,314.79999 454.424,316.816 C456.248009,318.83201 457.16,321.087988 457.16,323.584 C457.16,330.112033 453.704035,334.623988 446.792,337.12 C439.879965,339.424012 427.784086,340.576 410.504,340.576 Z" id="2+2" fill="#FFFFFF"></path>
    </g>
</svg>