<?xml version="1.0" encoding="UTF-8"?>
<svg viewBox="0 0 512 512" version="1.1" 
    xmlns="http://www.w3.org/2000/svg" 
    xmlns:xlink="http://www.w3.org/1999/xlink">
    <g stroke="none" stroke-width="1" fill="none" fill-rule="evenodd">
        <path d="M191.254788,118.454538 C196.990037,116.356276 202.515377,115.307161 207.830974,115.307161 C213.146571,115.307161 218.287236,116.146453 223.253122,117.825062 C228.219009,119.503672 232.765175,122.09149 236.891757,125.588593 C241.018339,129.085696 244.340537,133.876656 246.858451,139.961615 C249.376366,146.046575 250.635304,153.075647 250.635304,161.049042 C250.635304,174.477919 246.718607,185.808363 238.885096,195.040716 C231.051584,204.273069 221.994223,208.889176 211.712739,208.889176 C201.431256,208.889176 192.408865,206.546152 184.645296,201.860033 C176.881726,197.173915 173,192.03325 173,186.437885 C173,183.780087 173.314735,181.786768 173.944213,180.457868 C174.573692,179.128969 175.727719,178.044883 177.406328,177.205579 C179.084938,176.366274 180.588669,175.946628 181.917569,175.946628 C183.246468,175.946628 185.064934,176.750949 187.373022,178.359617 C189.681111,179.968284 192.933368,182.241367 197.129892,185.178934 C201.326416,188.116501 206.152346,189.585262 211.607827,189.585262 C217.063308,189.585262 221.889238,186.822592 226.085762,181.297169 C230.282286,175.771746 232.380516,169.721848 232.380516,163.147294 C232.380516,144.262936 223.917653,134.820899 206.991674,134.820899 C203.354686,134.820899 199.123255,135.170604 194.297252,135.870025 C189.47125,136.569446 186.323904,136.989092 184.855121,137.128976 C183.386337,137.26886 181.393018,136.779273 178.875104,135.6602 C175.937537,132.862517 174.468776,123.945038 174.468776,108.907494 C174.468776,93.8699498 174.818481,84.1481486 175.517902,79.7417985 C176.217322,75.3354484 177.40632,72.7826013 179.084929,72.0831807 C182.022496,70.8242235 190.800093,70.1947544 205.417985,70.1947544 C220.035877,70.1947544 231.750997,71.5935747 240.563697,74.3912573 C243.36138,76.0698668 244.7602,78.4828319 244.7602,81.6302248 C244.7602,84.7776177 243.885937,87.3304648 242.137386,89.2888426 C240.388834,91.2472204 238.535397,92.0165716 236.577019,91.5969192 C224.966636,89.0790049 213.286487,87.8200666 201.53622,87.8200666 C197.899232,87.8200666 194.2623,87.9599486 190.625312,88.2397169 C190.625312,93.695198 190.835135,103.766704 191.254788,118.454538 Z M260.427144,143.213905 C260.427144,124.469432 263.784313,107.963352 270.498751,93.6951707 C273.85597,86.4211959 278.402136,80.6860326 284.137386,76.4895087 C289.872635,72.2929848 296.44709,70.1947544 303.860949,70.1947544 C314.771911,70.1947544 323.689391,77.2937675 330.613655,91.4920067 C337.53792,105.690246 341,122.546031 341,142.059867 C341,161.573703 337.782713,177.730078 331.348043,190.529475 C324.913373,203.328873 315.821041,209.728476 304.070774,209.728476 C274.974875,209.728476 260.427144,187.557174 260.427144,143.213905 Z M301.832639,189.515321 C306.868468,189.515321 311.0999,186.892532 314.527061,181.646878 C317.954222,176.401223 320.297246,170.526177 321.556203,164.021565 C322.81516,157.516953 323.444629,149.05409 323.444629,138.632723 C323.444629,128.211355 322.045809,117.125704 319.248127,105.375437 C317.849285,98.9407672 315.716084,93.8001025 312.84846,89.9532889 C309.980835,86.1064754 306.518755,84.1830974 302.462115,84.1830974 C297.006634,84.1830974 292.320586,87.4703252 288.40383,94.0448793 C281.409624,105.93503 277.912573,121.7417 277.912573,141.465362 C277.912573,154.334702 280.325538,165.560235 285.15154,175.142298 C289.977543,184.724361 295.537854,189.515321 301.832639,189.515321 Z M249.691091,246.867527 L249.691091,245.188926 L249.27144,230.501166 C249.27144,216.372869 252.768491,209.308826 259.762698,209.308826 C262.980033,209.308826 265.148204,211.337115 266.267277,215.393755 L265.847627,246.867527 L292.285595,246.867527 C296.342235,247.566948 298.370525,249.455355 298.370525,252.532806 C298.370525,254.770952 297.531232,256.904153 295.852623,258.932473 C294.174013,260.960793 292.145724,262.324643 289.767694,263.024063 L265.637802,263.024063 C265.497918,264.003252 265.427977,265.611896 265.427977,267.850042 L265.427977,279.390425 C265.427977,294.777679 262.070808,302.471191 255.35637,302.471191 C251.019962,302.471191 248.85179,300.023255 248.85179,295.127311 C248.85179,280.859129 249.061613,270.158154 249.481266,263.024063 L221.154871,263.024063 C216.538695,263.024063 214.230641,261.135656 214.230641,257.358784 C214.230641,255.120638 215.174845,252.882526 217.063281,250.64438 C218.951716,248.406234 221.154858,247.147295 223.672773,246.867527 L249.691091,246.867527 Z M191.254788,369.545296 C196.990037,367.447034 202.515377,366.397918 207.830974,366.397918 C213.146571,366.397918 218.287236,367.237211 223.253122,368.91582 C228.219009,370.59443 232.765175,373.182247 236.891757,376.679351 C241.018339,380.176454 244.340537,384.967413 246.858451,391.052373 C249.376366,397.137333 250.635304,404.166405 250.635304,412.1398 C250.635304,425.568677 246.718607,436.899121 238.885096,446.131474 C231.051584,455.363826 221.994223,459.979933 211.712739,459.979933 C201.431256,459.979933 192.408865,457.636909 184.645296,452.950791 C176.881726,448.264673 173,443.124008 173,437.528643 C173,434.870844 173.314735,432.877525 173.944213,431.548626 C174.573692,430.219727 175.727719,429.135641 177.406328,428.296336 C179.084938,427.457032 180.588669,427.037386 181.917569,427.037386 C183.246468,427.037386 185.064934,427.841707 187.373022,429.450375 C189.681111,431.059042 192.933368,433.332125 197.129892,436.269692 C201.326416,439.207259 206.152346,440.67602 211.607827,440.67602 C217.063308,440.67602 221.889238,437.91335 226.085762,432.387927 C230.282286,426.862504 232.380516,420.812606 232.380516,414.238052 C232.380516,395.353694 223.917653,385.911657 206.991674,385.911657 C203.354686,385.911657 199.123255,386.261362 194.297252,386.960783 C189.47125,387.660203 186.323904,388.079849 184.855121,388.219734 C183.386337,388.359618 181.393018,387.870031 178.875104,386.750958 C175.937537,383.953275 174.468776,375.035795 174.468776,359.998251 C174.468776,344.960707 174.818481,335.238906 175.517902,330.832556 C176.217322,326.426206 177.40632,323.873359 179.084929,323.173938 C182.022496,321.914981 190.800093,321.285512 205.417985,321.285512 C220.035877,321.285512 231.750997,322.684332 240.563697,325.482015 C243.36138,327.160625 244.7602,329.57359 244.7602,332.720983 C244.7602,335.868375 243.885937,338.421223 242.137386,340.3796 C240.388834,342.337978 238.535397,343.107329 236.577019,342.687677 C224.966636,340.169763 213.286487,338.910824 201.53622,338.910824 C197.899232,338.910824 194.2623,339.050706 190.625312,339.330475 C190.625312,344.785956 190.835135,354.857462 191.254788,369.545296 Z M260.427144,392.55612 C260.427144,373.811646 263.784313,357.305567 270.498751,343.037386 C273.85597,335.763411 278.402136,330.028247 284.137386,325.831724 C289.872635,321.6352 296.44709,319.536969 303.860949,319.536969 C314.771911,319.536969 323.689391,326.635982 330.613655,340.834221 C337.53792,355.032461 341,371.888245 341,391.402082 C341,410.915918 337.782713,427.072292 331.348043,439.87169 C324.913373,452.671088 315.821041,459.070691 304.070774,459.070691 C274.974875,459.070691 260.427144,436.899389 260.427144,392.55612 Z M301.832639,440.606078 C306.868468,440.606078 311.0999,437.98329 314.527061,432.737635 C317.954222,427.49198 320.297246,421.616935 321.556203,415.112323 C322.81516,408.607711 323.444629,400.144848 323.444629,389.72348 C323.444629,379.302113 322.045809,368.216462 319.248127,356.466195 C317.849285,350.031525 315.716084,344.89086 312.84846,341.044047 C309.980835,337.197233 306.518755,335.273855 302.462115,335.273855 C297.006634,335.273855 292.320586,338.561083 288.40383,345.135637 C281.409624,357.025788 277.912573,372.832458 277.912573,392.55612 C277.912573,405.42546 280.325538,416.650993 285.15154,426.233056 C289.977543,435.815119 295.537854,440.606078 301.832639,440.606078 Z" id="50-+-50" fill="#FFFFFF"></path>
    </g>
</svg>