<?xml version="1.0" encoding="UTF-8"?>
<svg viewBox="0 0 512 512" version="1.1" 
    xmlns="http://www.w3.org/2000/svg" 
    xmlns:xlink="http://www.w3.org/1999/xlink">
    <!-- Generator: Sketch 51.3 (57544) - http://www.bohemiancoding.com/sketch -->
    <title>55</title>
    <desc>Created with Sketch.</desc>
    <defs></defs>
    <g id="55" stroke="none" stroke-width="1" fill="none" fill-rule="evenodd">
        <path d="M169.024,216.872 C176.896039,213.991986 184.479964,212.552 191.776,212.552 C199.072036,212.552 206.127966,213.703988 212.944,216.008 C219.760034,218.312012 225.999972,221.863976 231.664,226.664 C237.328028,231.464024 241.887983,238.039958 245.344,246.392 C248.800017,254.744042 250.528,264.391945 250.528,275.336 C250.528,293.768092 245.152054,309.319937 234.4,321.992 C223.647946,334.664063 211.216071,341 197.104,341 C182.991929,341 170.608053,337.784032 159.952,331.352 C149.295947,324.919968 143.968,317.864038 143.968,310.184 C143.968,306.535982 144.399996,303.800009 145.264,301.976 C146.128004,300.151991 147.711988,298.664006 150.016,297.512 C152.320012,296.359994 154.383991,295.784 156.208,295.784 C158.032009,295.784 160.527984,296.887989 163.696,299.096 C166.864016,301.304011 171.327971,304.42398 177.088,308.456 C182.848029,312.48802 189.471963,314.504 196.96,314.504 C204.448037,314.504 211.071971,310.712038 216.832,303.128 C222.592029,295.543962 225.472,287.240045 225.472,278.216 C225.472,252.29587 213.856116,239.336 190.624,239.336 C185.631975,239.336 179.824033,239.815995 173.2,240.776 C166.575967,241.736005 162.25601,242.311999 160.24,242.504 C158.22399,242.696001 155.488017,242.024008 152.032,240.488 C147.99998,236.647981 145.984,224.408103 145.984,203.768 C145.984,183.127897 146.463995,169.78403 147.424,163.736 C148.384005,157.68797 150.015988,154.184005 152.32,153.224 C156.35202,151.495991 168.3999,150.632 188.464,150.632 C208.5281,150.632 224.60794,152.551981 236.704,156.392 C240.544019,158.696012 242.464,162.007978 242.464,166.328 C242.464,170.648022 241.264012,174.151987 238.864,176.84 C236.463988,179.528013 233.920013,180.584003 231.232,180.008 C215.29592,176.551983 199.264081,174.824 183.136,174.824 C178.143975,174.824 173.152025,175.015998 168.16,175.4 C168.16,182.888037 168.447997,196.711899 169.024,216.872 Z M290.848,216.872 C298.720039,213.991986 306.303964,212.552 313.6,212.552 C320.896036,212.552 327.951966,213.703988 334.768,216.008 C341.584034,218.312012 347.823972,221.863976 353.488,226.664 C359.152028,231.464024 363.711983,238.039958 367.168,246.392 C370.624017,254.744042 372.352,264.391945 372.352,275.336 C372.352,293.768092 366.976054,309.319937 356.224,321.992 C345.471946,334.664063 333.040071,341 318.928,341 C304.815929,341 292.432053,337.784032 281.776,331.352 C271.119947,324.919968 265.792,317.864038 265.792,310.184 C265.792,306.535982 266.223996,303.800009 267.088,301.976 C267.952004,300.151991 269.535988,298.664006 271.84,297.512 C274.144012,296.359994 276.207991,295.784 278.032,295.784 C279.856009,295.784 282.351984,296.887989 285.52,299.096 C288.688016,301.304011 293.151971,304.42398 298.912,308.456 C304.672029,312.48802 311.295963,314.504 318.784,314.504 C326.272037,314.504 332.895971,310.712038 338.656,303.128 C344.416029,295.543962 347.296,287.240045 347.296,278.216 C347.296,252.29587 335.680116,239.336 312.448,239.336 C307.455975,239.336 301.648033,239.815995 295.024,240.776 C288.399967,241.736005 284.08001,242.311999 282.064,242.504 C280.04799,242.696001 277.312017,242.024008 273.856,240.488 C269.82398,236.647981 267.808,224.408103 267.808,203.768 C267.808,183.127897 268.287995,169.78403 269.248,163.736 C270.208005,157.68797 271.839988,154.184005 274.144,153.224 C278.17602,151.495991 290.2239,150.632 310.288,150.632 C330.3521,150.632 346.43194,152.551981 358.528,156.392 C362.368019,158.696012 364.288,162.007978 364.288,166.328 C364.288,170.648022 363.088012,174.151987 360.688,176.84 C358.287988,179.528013 355.744013,180.584003 353.056,180.008 C337.11992,176.551983 321.088081,174.824 304.96,174.824 C299.967975,174.824 294.976025,175.015998 289.984,175.4 C289.984,182.888037 290.271997,196.711899 290.848,216.872 Z" fill="#FFFFFF"></path>
    </g>
</svg>