<?xml version="1.0" encoding="UTF-8"?>
<svg viewBox="0 0 512 512" version="1.1" 
    xmlns="http://www.w3.org/2000/svg" 
    xmlns:xlink="http://www.w3.org/1999/xlink">
    <!-- Generator: Sketch 51.3 (57544) - http://www.bohemiancoding.com/sketch -->
    <title>A_upper</title>
    <desc>Created with Sketch.</desc>
    <defs></defs>
    <g id="A_upper" stroke="none" stroke-width="1" fill="none" fill-rule="evenodd">
        <path d="M260.82,150.208 C265.620024,150.208 269.651984,152.319979 272.916,156.544 C276.180016,160.768021 280.403974,169.503934 285.588,182.752 C297.68406,214.048156 309.491942,263.103666 321.012,329.92 C321.204001,330.688004 321.3,331.791993 321.3,333.232 C321.3,334.672007 320.388009,336.207992 318.564,337.84 C316.739991,339.472008 314.148017,340.288 310.788,340.288 C307.427983,340.288 304.596012,339.472008 302.292,337.84 C299.987988,336.207992 298.452004,333.520019 297.684,329.776 C296.915996,326.031981 295.476011,318.688055 293.364,307.744 C288.755977,283.359878 285.684008,270.688005 284.148,269.728 C281.843988,268.383993 274.212065,266.944008 261.252,265.408 C248.291935,263.871992 239.700021,263.104 235.476,263.104 C231.251979,263.104 228.756004,263.487996 227.988,264.256 C224.531983,267.328015 219.82803,290.655782 213.876,334.24 C213.107996,337.888018 209.460033,339.712 202.932,339.712 C196.403967,339.712 193.14,336.928028 193.14,331.36 C193.14,317.535931 198.227949,291.136195 208.404,252.16 C218.580051,213.183805 227.027966,187.360063 233.748,174.688 C242.196042,158.367918 251.219952,150.208 260.82,150.208 Z M259.668,182.176 C256.787986,182.176 251.796036,190.671915 244.692,207.664 C237.587964,224.656085 234.036,235.16798 234.036,239.2 C234.036,240.160005 234.227998,240.831998 234.612,241.216 C236.148008,242.752008 242.195947,244.095994 252.756,245.248 C263.316053,246.400006 270.323983,246.976 273.78,246.976 C277.236017,246.976 279.155998,246.736002 279.54,246.256 C279.924002,245.775998 280.116,244.240013 280.116,241.648 C280.116,239.055987 277.524026,228.496093 272.34,209.968 C267.155974,191.439907 262.932016,182.176 259.668,182.176 Z" id="A" fill="#FFFFFF"></path>
    </g>
</svg>