<?xml version="1.0" encoding="UTF-8"?>
<svg viewBox="0 0 512 512" version="1.1" 
  xmlns="http://www.w3.org/2000/svg" 
  xmlns:xlink="http://www.w3.org/1999/xlink">
  <!-- Generator: Sketch 51.3 (57544) - http://www.bohemiancoding.com/sketch -->
  <title>calendar</title>
  <desc>Created with Sketch.</desc>
  <defs></defs>
  <g id="calendar" stroke="none" stroke-width="1" fill="none" fill-rule="evenodd">
    <g transform="translate(106.000000, 106.000000)" fill="#FFFFFF" fill-rule="nonzero" id="Shape">
      <path d="M37.4997681,46.8759081 L37.4997681,9.37505796 C37.4997681,4.19259171 41.6923771,0 46.8761013,0 C52.0573524,0 56.2499614,4.19259171 56.2499614,9.37505796 L56.2499614,46.8759081 C56.2499614,52.0571378 52.0573524,56.2497295 46.8761013,56.2497295 C41.6923771,56.2503478 37.4997681,52.0571378 37.4997681,46.8759081 Z M196.877029,56.2503478 C202.057043,56.2503478 206.252125,52.0577561 206.252125,46.8765264 L206.252125,9.37505796 C206.252125,4.19259171 202.057043,0 196.877029,0 C191.694541,0 187.498841,4.19259171 187.498841,9.37505796 L187.498841,46.8759081 C187.498841,52.0571378 191.694541,56.2503478 196.877029,56.2503478 Z M300,224.997681 C300,266.420314 266.419558,300 224.999845,300 C183.583225,300 150.000309,266.420314 150.000309,224.997681 C150.000309,183.581231 183.582606,149.999691 224.999845,149.999691 C266.419558,149.999691 300,183.580613 300,224.997681 Z M281.25228,224.997681 C281.25228,193.983879 256.019958,168.74857 225.000464,168.74857 C193.983442,168.74857 168.751121,193.983261 168.751121,224.997681 C168.751121,256.017666 193.983442,281.249266 225.000464,281.249266 C256.019958,281.249266 281.25228,256.017666 281.25228,224.997681 Z M75.0007729,112.500077 L37.4997681,112.500077 L37.4997681,149.999691 L75.0007729,149.999691 L75.0007729,112.500077 Z M37.4997681,206.250039 L75.0007729,206.250039 L75.0007729,168.74857 L37.4997681,168.74857 L37.4997681,206.250039 Z M93.7497295,149.999691 L131.251353,149.999691 L131.251353,112.500077 L93.7497295,112.500077 L93.7497295,149.999691 Z M93.7497295,206.250039 L131.251353,206.250039 L131.251353,168.74857 L93.7497295,168.74857 L93.7497295,206.250039 Z M18.7508115,223.133552 L18.7508115,93.7493431 L225.000464,93.7493431 L225.000464,131.250193 L243.751275,131.250193 L243.751275,58.1188056 C243.751275,46.7293745 234.667392,37.4996136 223.444852,37.4996136 L215.625367,37.4996136 L215.625367,46.8765264 C215.625367,57.2025069 207.219127,65.626024 196.877647,65.626024 C186.533075,65.626024 178.127454,57.2025069 178.127454,46.8765264 L178.127454,37.4996136 L65.6244397,37.4996136 L65.6244397,46.8765264 C65.6244397,57.2025069 57.2200548,65.626024 46.8767196,65.626024 C36.5309113,65.626024 28.1259081,57.2025069 28.1259081,46.8765264 L28.1259081,37.4996136 L20.3156977,37.4996136 C9.09253912,37.4996136 0,46.7293745 0,58.1188056 L0,223.13417 C0,234.485886 9.09253912,243.751507 20.3156977,243.751507 L131.251353,243.751507 L131.251353,224.9983 L20.3156977,224.9983 C19.4661704,224.997681 18.7508115,224.120335 18.7508115,223.133552 Z M187.498841,149.999691 L187.498841,112.500077 L150.000927,112.500077 L150.000927,149.999691 L187.498841,149.999691 Z M253.125754,224.997681 L224.999845,224.997681 L224.999845,196.871889 C224.999845,191.692514 220.807236,187.499923 215.624749,187.499923 C210.442261,187.499923 206.252125,191.692514 206.252125,196.871889 L206.252125,234.375831 C206.252125,239.555824 210.442261,243.750889 215.624749,243.750889 L253.125754,243.750889 C258.308241,243.750889 262.50085,239.555824 262.50085,234.375831 C262.50085,229.193365 258.308241,224.997681 253.125754,224.997681 Z"></path>
    </g>
  </g>
</svg>