<?xml version="1.0" encoding="UTF-8"?>
<svg viewBox="0 0 512 512" version="1.1" 
    xmlns="http://www.w3.org/2000/svg" 
    xmlns:xlink="http://www.w3.org/1999/xlink">
    <!-- Generator: Sketch 51.3 (57544) - http://www.bohemiancoding.com/sketch -->
    <title>e_lower</title>
    <desc>Created with Sketch.</desc>
    <defs></defs>
    <g id="e_lower" stroke="none" stroke-width="1" fill="none" fill-rule="evenodd">
        <path d="M248.952,154.428 C264.640078,154.428 279.587929,159.015954 293.796,168.192 C308.004071,177.368046 315.108,188.689933 315.108,202.158 C315.108,215.626067 309.336058,228.649937 297.792,241.23 C286.247942,253.810063 270.856096,261.431987 251.616,264.096 C243.327959,265.280006 230.896083,265.872 214.32,265.872 C217.576016,291.032126 223.939953,307.60796 233.412,315.6 C236.372015,318.856016 240.367975,320.484 245.4,320.484 C263.752092,320.484 279.143938,314.638058 291.576,302.946 C304.008062,291.253942 312.887973,285.408 318.216,285.408 C320.584012,285.408 324.135976,287.627978 328.872,292.068 C333.608024,296.508022 335.976,300.651981 335.976,304.5 C335.976,312.196038 326.652093,323.295927 308.004,337.8 C299.715959,344.608034 289.726058,350.305977 278.034,354.894 C266.341942,359.482023 255.46405,361.776 245.4,361.776 C219.647871,361.776 200.704061,345.200166 188.568,312.048 C180.871962,291.623898 177.024,269.128123 177.024,244.56 C177.024,219.991877 182.795942,198.828089 194.34,181.068 C205.884058,163.307911 224.087876,154.428 248.952,154.428 Z M251.172,185.064 C239.923944,185.064 230.30404,191.427936 222.312,204.156 C219.351985,208.596022 216.540013,218.659922 213.876,234.348 C255.316207,234.348 276.036,224.136102 276.036,203.712 C276.036,191.279938 267.748083,185.064 251.172,185.064 Z" id="e" fill="#FFFFFF"></path>
    </g>
</svg>