<?xml version="1.0" encoding="UTF-8"?>
<svg viewBox="0 0 512 512" version="1.1" 
    xmlns="http://www.w3.org/2000/svg" 
    xmlns:xlink="http://www.w3.org/1999/xlink">
    <!-- Generator: Sketch 51.3 (57544) - http://www.bohemiancoding.com/sketch -->
    <title>robot</title>
    <desc>Created with Sketch.</desc>
    <defs></defs>
    <g id="robot" stroke="none" stroke-width="1" fill="none" fill-rule="evenodd">
        <path d="M86,232 L86,300 C86,309.403125 93.5745313,317 102.95,317 L119.9,317 L119.9,215 L102.95,215 C93.5745313,215 86,222.596875 86,232 Z M331.775,147 L272.45,147 L272.45,113 C272.45,103.596875 264.875469,96 255.5,96 C246.124531,96 238.55,103.596875 238.55,113 L238.55,147 L179.225,147 C155.812813,147 136.85,166.01875 136.85,189.5 L136.85,334 C136.85,352.753125 152.052031,368 170.75,368 L340.25,368 C358.947969,368 374.15,352.753125 374.15,334 L374.15,189.5 C374.15,166.01875 355.187188,147 331.775,147 Z M221.6,317 L187.7,317 L187.7,300 L221.6,300 L221.6,317 Z M204.65,253.25 C192.943906,253.25 183.4625,243.740625 183.4625,232 C183.4625,220.259375 192.943906,210.75 204.65,210.75 C216.356094,210.75 225.8375,220.259375 225.8375,232 C225.8375,243.740625 216.356094,253.25 204.65,253.25 Z M272.45,317 L238.55,317 L238.55,300 L272.45,300 L272.45,317 Z M323.3,317 L289.4,317 L289.4,300 L323.3,300 L323.3,317 Z M306.35,253.25 C294.643906,253.25 285.1625,243.740625 285.1625,232 C285.1625,220.259375 294.643906,210.75 306.35,210.75 C318.056094,210.75 327.5375,220.259375 327.5375,232 C327.5375,243.740625 318.056094,253.25 306.35,253.25 Z M408.05,215 L391.1,215 L391.1,317 L408.05,317 C417.425469,317 425,309.403125 425,300 L425,232 C425,222.596875 417.425469,215 408.05,215 Z" id="Shape" fill="#FFFFFF" fill-rule="nonzero"></path>
    </g>
</svg>