<?xml version="1.0" encoding="UTF-8"?>
<svg viewBox="0 0 512 512" version="1.1" 
    xmlns="http://www.w3.org/2000/svg" 
    xmlns:xlink="http://www.w3.org/1999/xlink">
    <!-- Generator: Sketch 51.3 (57544) - http://www.bohemiancoding.com/sketch -->
    <title>Icon 512 Copy 5</title>
    <desc>Created with Sketch.</desc>
    <defs></defs>
    <g id="Icon-512-Copy-5" stroke="none" stroke-width="1" fill="none" fill-rule="evenodd">
        <g id="robot" transform="translate(86.000000, 96.000000)" fill="#ffffff" fill-rule="nonzero">
            <path d="M0,136 L0,204 C0,213.403125 7.57453125,221 16.95,221 L33.9,221 L33.9,119 L16.95,119 C7.57453125,119 0,126.596875 0,136 Z M245.775,51 L186.45,51 L186.45,17 C186.45,7.596875 178.875469,0 169.5,0 C160.124531,0 152.55,7.596875 152.55,17 L152.55,51 L93.225,51 C69.8128125,51 50.85,70.01875 50.85,93.5 L50.85,238 C50.85,256.753125 66.0520313,272 84.75,272 L254.25,272 C272.947969,272 288.15,256.753125 288.15,238 L288.15,93.5 C288.15,70.01875 269.187188,51 245.775,51 Z M135.6,221 L101.7,221 L101.7,204 L135.6,204 L135.6,221 Z M118.65,157.25 C106.943906,157.25 97.4625,147.740625 97.4625,136 C97.4625,124.259375 106.943906,114.75 118.65,114.75 C130.356094,114.75 139.8375,124.259375 139.8375,136 C139.8375,147.740625 130.356094,157.25 118.65,157.25 Z M186.45,221 L152.55,221 L152.55,204 L186.45,204 L186.45,221 Z M237.3,221 L203.4,221 L203.4,204 L237.3,204 L237.3,221 Z M220.35,157.25 C208.643906,157.25 199.1625,147.740625 199.1625,136 C199.1625,124.259375 208.643906,114.75 220.35,114.75 C232.056094,114.75 241.5375,124.259375 241.5375,136 C241.5375,147.740625 232.056094,157.25 220.35,157.25 Z M322.05,119 L305.1,119 L305.1,221 L322.05,221 C331.425469,221 339,213.403125 339,204 L339,136 C339,126.596875 331.425469,119 322.05,119 Z" id="Shape"></path>
        </g>
    </g>
</svg>