<?xml version="1.0" encoding="UTF-8"?>
<svg viewBox="0 0 512 512" version="1.1" 
    xmlns="http://www.w3.org/2000/svg" 
    xmlns:xlink="http://www.w3.org/1999/xlink">
    <g stroke="none" stroke-width="1" fill="none" fill-rule="evenodd">
        <path d="M134.28,145.36 C138.120019,142.959988 142.439976,141.76 147.24,141.76 C152.040024,141.76 155.039994,144.519972 156.24,150.04 C156.480001,177.880139 156.959996,219.519723 157.68,274.96 C157.68,308.800169 156.72001,337.479882 154.8,361 C154.319998,364.600018 152.10002,367.779986 148.14,370.54 C144.17998,373.300014 140.16002,374.68 136.08,374.68 C129.359966,374.68 126,371.200035 126,364.24 C128.400012,340.23988 129.6,310.480178 129.6,274.96 L127.44,154 C128.400005,150.639983 130.679982,147.760012 134.28,145.36 Z M289.44,367.48 C279.599951,338.439855 269.400053,311.860121 258.84,287.74 C248.279947,263.619879 234.720083,233.320182 218.16,196.84 C212.399971,184.119936 208.800007,176.260015 207.36,173.26 C205.919993,170.259985 205.2,166.900019 205.2,163.18 C205.2,159.459981 207.059981,155.800018 210.78,152.2 C214.500019,148.599982 218.639977,146.8 223.2,146.8 C227.760023,146.8 231.599984,149.079977 234.72,153.64 L252,193.24 C276.240121,249.16028 293.519948,289.839873 303.84,315.28 L310.32,290.08 C315.600026,267.99989 321.119971,246.160108 326.88,224.56 C343.200082,165.519705 359.279921,136 375.12,136 C378.000014,136 380.45999,136.839992 382.5,138.52 C384.54001,140.200008 385.56,142.479986 385.56,145.36 C385.56,148.240014 384.060015,152.439972 381.06,157.96 C378.059985,163.480028 374.280023,173.439928 369.72,187.84 C365.159977,202.240072 362.340005,210.699987 361.26,213.22 C360.179995,215.740013 354.420052,235.95981 343.98,273.88 C333.539948,311.80019 324.600037,341.559892 317.16,363.16 C315.959994,367.000019 313.680017,370.179987 310.32,372.7 C306.959983,375.220013 303.180021,376.48 298.98,376.48 C294.779979,376.48 291.600011,373.48003 289.44,367.48 Z" id="IV" fill="#FFFFFF"></path>
    </g>
</svg>